<?xml version="1.0" encoding="utf-8"?>
<!-- Generator: Adobe Illustrator 22.0.1, SVG Export Plug-In . SVG Version: 6.00 Build 0)  -->
<svg version="1.1" id="Layer_1" xmlns="http://www.w3.org/2000/svg" xmlns:xlink="http://www.w3.org/1999/xlink" x="0px" y="0px"
	 viewBox="0 0 1325 266.5" style="enable-background:new 0 0 1325 266.5;" xml:space="preserve">
<style type="text/css">
	.st0{fill:url(#SVGID_1_);}
</style>
<g>
	<linearGradient id="SVGID_1_" gradientUnits="userSpaceOnUse" x1="662.5001" y1="199.6728" x2="662.5001" y2="36.5389">
		<stop  offset="5.945950e-02" style="stop-color:#FFBE08;stop-opacity:0"/>
		<stop  offset="0.1649" style="stop-color:#FFBE08;stop-opacity:0.1919"/>
		<stop  offset="1" style="stop-color:#FFBE08"/>
	</linearGradient>
	<path class="st0" d="M1324,266.5c0,0-0.1,0-0.1,0c-3.7-0.4-7.6-1.2-11.9-2.2c-0.5-0.1-0.9-0.7-0.8-1.3c0.1-0.6,0.7-1,1.2-0.8
		c4.2,1,8.1,1.7,11.7,2.2c0.5,0.1,0.9,0.6,0.9,1.2C1324.9,266.1,1324.5,266.5,1324,266.5z M1300.6,261c-0.1,0-0.2,0-0.3,0
		c-3.5-1.1-7.2-2.4-11.5-3.9c-0.5-0.2-0.8-0.8-0.6-1.4c0.2-0.6,0.7-0.9,1.3-0.7c4.2,1.5,8,2.8,11.4,3.9c0.5,0.2,0.8,0.8,0.7,1.4
		C1301.4,260.7,1301,261,1300.6,261z M1277.8,252.9c-0.1,0-0.2,0-0.3-0.1c-3.6-1.4-7.4-2.8-11.3-4.4c-0.5-0.2-0.8-0.8-0.6-1.4
		c0.2-0.6,0.8-0.9,1.3-0.7c3.9,1.5,7.7,3,11.3,4.4c0.5,0.2,0.8,0.8,0.6,1.4C1278.6,252.6,1278.2,252.9,1277.8,252.9z M1255.2,244.1
		c-0.1,0-0.2,0-0.3-0.1c-3.6-1.4-7.4-2.9-11.3-4.4c-0.5-0.2-0.8-0.8-0.6-1.4c0.2-0.6,0.8-0.9,1.3-0.7c3.9,1.5,7.7,3,11.3,4.4
		c0.5,0.2,0.8,0.8,0.6,1.4C1255.9,243.8,1255.6,244.1,1255.2,244.1z M1232.5,235.5c-0.1,0-0.2,0-0.3-0.1l-0.4-0.1
		c-3.2-1.2-6.9-2.4-11.1-3.4c-0.5-0.1-0.9-0.7-0.7-1.3c0.1-0.6,0.7-0.9,1.2-0.8c4.2,1.1,8,2.3,11.2,3.5l0.4,0.2
		c0.5,0.2,0.8,0.8,0.6,1.4C1233.3,235.2,1232.9,235.5,1232.5,235.5z M1209.2,229.1c-0.1,0-0.1,0-0.2,0c-3.7-0.7-7.7-1.5-11.8-2.1
		c-0.5-0.1-0.9-0.6-0.8-1.2c0.1-0.6,0.6-1,1.1-0.9c4.2,0.7,8.2,1.4,11.9,2.2c0.5,0.1,0.9,0.7,0.8,1.3
		C1210.1,228.8,1209.7,229.1,1209.2,229.1z M1185.4,225.2c0,0-0.1,0-0.1,0c-3.8-0.5-7.8-1-11.9-1.5c-0.5-0.1-0.9-0.6-0.9-1.2
		c0.1-0.6,0.5-1,1.1-1c4.1,0.5,8.2,1,12,1.5c0.5,0.1,0.9,0.6,0.9,1.2C1186.4,224.8,1185.9,225.2,1185.4,225.2z M1161.5,222.5
		C1161.5,222.5,1161.5,222.5,1161.5,222.5c-3.9-0.4-7.9-0.7-12.1-1.1c-0.6,0-1-0.6-0.9-1.2c0-0.6,0.5-1.1,1.1-1
		c4.1,0.3,8.2,0.7,12,1.1c0.6,0.1,1,0.6,0.9,1.2C1162.5,222.1,1162.1,222.5,1161.5,222.5z M1137.6,220.6
		C1137.6,220.6,1137.5,220.6,1137.6,220.6c-4-0.3-8-0.5-12-0.8c-0.6,0-1-0.5-0.9-1.2c0-0.6,0.5-1.1,1.1-1c4,0.2,8,0.5,12,0.8
		c0.6,0,1,0.6,0.9,1.2C1138.5,220.1,1138.1,220.6,1137.6,220.6z M1113.6,219.1C1113.6,219.1,1113.5,219.1,1113.6,219.1
		c-4-0.2-8.1-0.4-12-0.6c-0.6,0-1-0.5-1-1.1c0-0.6,0.5-1.1,1-1c4,0.2,8,0.4,12,0.6c0.6,0,1,0.5,1,1.1
		C1114.5,218.6,1114.1,219.1,1113.6,219.1z M1089.6,218C1089.6,218,1089.5,218,1089.6,218c-4.1-0.2-8.1-0.3-12-0.4
		c-0.6,0-1-0.5-1-1.1c0-0.6,0.5-1.1,1-1.1c4,0.1,8,0.3,12,0.4c0.6,0,1,0.5,1,1.1C1090.5,217.6,1090.1,218,1089.6,218z M1065.5,217.3
		C1065.5,217.3,1065.5,217.3,1065.5,217.3c-4.1-0.1-8.1-0.2-12-0.3c-0.6,0-1-0.5-1-1.1c0-0.6,0.5-1.1,1-1.1c3.9,0.1,7.9,0.2,12,0.3
		c0.6,0,1,0.5,1,1.1C1066.5,216.8,1066.1,217.3,1065.5,217.3z M1041.5,216.7L1041.5,216.7c-4.1-0.1-8.2-0.1-12-0.2
		c-0.6,0-1-0.5-1-1.1c0-0.6,0.5-1.1,1-1.1h0c3.9,0.1,7.9,0.1,12,0.2c0.6,0,1,0.5,1,1.1C1042.5,216.2,1042.1,216.7,1041.5,216.7z
		 M1017.5,216.4L1017.5,216.4c-4.3,0-8.3-0.1-12-0.1c-0.6,0-1-0.5-1-1.1c0-0.6,0.5-1.1,1-1.1h0c3.8,0,7.8,0.1,12,0.1
		c0.6,0,1,0.5,1,1.1C1018.5,215.9,1018,216.4,1017.5,216.4z M993.5,216.1C993.5,216.1,993.4,216.1,993.5,216.1
		c-4.1-0.1-8.1-0.2-12-0.3c-0.6,0-1-0.5-1-1.1c0-0.6,0.5-1.1,1-1.1c3.9,0.1,7.9,0.2,12,0.3c0.6,0,1,0.5,1,1.1
		C994.4,215.6,994,216.1,993.5,216.1z M969.5,215.3C969.5,215.3,969.5,215.3,969.5,215.3c-4-0.2-8.1-0.4-12-0.7
		c-0.6,0-1-0.6-0.9-1.2c0-0.6,0.5-1.1,1.1-1c3.9,0.3,8,0.5,12,0.7c0.6,0,1,0.5,1,1.1C970.5,214.9,970,215.3,969.5,215.3z
		 M945.6,213.7C945.5,213.7,945.5,213.7,945.6,213.7c-4-0.3-8-0.7-12-1.1c-0.6-0.1-1-0.6-0.9-1.2c0-0.6,0.5-1,1.1-1
		c4,0.4,8.1,0.8,11.9,1.1c0.6,0,1,0.6,0.9,1.2C946.5,213.3,946.1,213.7,945.6,213.7z M921.7,211.3c0,0-0.1,0-0.1,0
		c-3.9-0.4-7.8-0.9-11.9-1.4c-0.5-0.1-0.9-0.6-0.9-1.2c0.1-0.6,0.6-1,1.1-1c4.1,0.5,8.1,1,11.9,1.4c0.5,0.1,0.9,0.6,0.9,1.2
		C922.6,210.9,922.2,211.3,921.7,211.3z M413.3,209.7c-0.5,0-1-0.5-1-1.1c0-0.6,0.4-1.1,1-1.1c4.3,0,8.3-0.2,11.9-0.5
		c0.6-0.1,1,0.4,1.1,1c0,0.6-0.4,1.1-0.9,1.2C421.7,209.5,417.7,209.7,413.3,209.7L413.3,209.7z M401.3,209.4
		C401.3,209.4,401.3,209.4,401.3,209.4c-3.8-0.2-7.7-0.5-12.1-0.8c-0.5,0-1-0.6-0.9-1.2c0-0.6,0.5-1.1,1.1-1c4.3,0.4,8.2,0.6,12,0.8
		c0.6,0,1,0.5,1,1.1C402.3,209,401.9,209.4,401.3,209.4z M897.9,208.4c0,0-0.1,0-0.1,0c-3.8-0.5-7.8-1-11.9-1.6
		c-0.5-0.1-0.9-0.6-0.9-1.2c0.1-0.6,0.6-1,1.1-0.9c4.1,0.6,8,1.1,11.9,1.6c0.5,0.1,0.9,0.6,0.9,1.2
		C898.8,208,898.4,208.4,897.9,208.4z M377.4,207.5C377.4,207.5,377.3,207.5,377.4,207.5c-4.2-0.4-8.2-0.9-12-1.4
		c-0.5-0.1-0.9-0.6-0.9-1.2c0.1-0.6,0.5-1,1.1-1c3.8,0.4,7.8,0.9,11.9,1.4c0.5,0.1,1,0.6,0.9,1.2C378.3,207,377.9,207.5,377.4,207.5
		z M437.2,207.4c-0.5,0-0.9-0.4-1-0.9c-0.1-0.6,0.2-1.2,0.8-1.3c4-0.9,7.6-2.2,10.7-3.6l0.5-0.2c0.5-0.2,1.1,0,1.3,0.6
		c0.2,0.6,0,1.2-0.5,1.4l-0.5,0.2c-3.2,1.6-6.9,2.8-11.1,3.8C437.3,207.4,437.3,207.4,437.2,207.4z M874.1,205.1c0,0-0.1,0-0.1,0
		c-3.8-0.6-7.8-1.1-11.9-1.7c-0.5-0.1-0.9-0.6-0.9-1.2c0.1-0.6,0.6-1,1.1-0.9c4.1,0.6,8,1.2,11.9,1.7c0.5,0.1,0.9,0.6,0.9,1.2
		C875,204.7,874.6,205.1,874.1,205.1z M353.5,204.7C353.5,204.7,353.4,204.7,353.5,204.7c-5.1-0.5-8.9-0.9-12-1
		c-0.6,0-1-0.5-0.9-1.1c0-0.6,0.5-1.1,1-1c3.2,0.2,7,0.5,12,1c0.5,0.1,1,0.6,0.9,1.2C354.5,204.3,354,204.7,353.5,204.7z
		 M329.6,202.6c0,0-0.1,0-0.1,0c-3.6-0.5-7.6-1.2-11.9-2c-0.5-0.1-0.9-0.7-0.8-1.3c0.1-0.6,0.6-1,1.2-0.9c4.3,0.8,8.3,1.5,11.8,2
		c0.5,0.1,0.9,0.6,0.9,1.2C330.5,202.2,330.1,202.6,329.6,202.6z M850.3,201.6c0,0-0.1,0-0.1,0c-3.9-0.6-7.8-1.2-11.9-1.8
		c-0.5-0.1-0.9-0.6-0.9-1.2c0.1-0.6,0.6-1,1.1-0.9c4.1,0.6,8,1.2,11.9,1.8c0.5,0.1,0.9,0.6,0.9,1.2
		C851.2,201.2,850.8,201.6,850.3,201.6z M459.6,198.2c-0.4,0-0.8-0.3-0.9-0.7c-0.2-0.6,0-1.2,0.5-1.4c3.9-1.8,7.5-3.4,11.2-4.9
		c0.5-0.2,1.1,0.1,1.3,0.6c0.2,0.6-0.1,1.2-0.6,1.4c-3.6,1.5-7.3,3.1-11.1,4.8C459.9,198.2,459.8,198.2,459.6,198.2z M305.9,198.2
		c-0.1,0-0.1,0-0.2,0c-3.8-0.9-7.8-1.8-11.8-2.8c-0.5-0.1-0.9-0.7-0.8-1.3c0.1-0.6,0.7-1,1.2-0.8c4,1,7.9,1.9,11.7,2.8
		c0.5,0.1,0.9,0.7,0.8,1.3C306.8,197.9,306.4,198.2,305.9,198.2z M826.5,198c0,0-0.1,0-0.1,0c-3.9-0.6-7.8-1.2-11.9-1.9
		c-0.5-0.1-0.9-0.6-0.8-1.2c0.1-0.6,0.6-1,1.1-0.9c4.1,0.6,8,1.3,11.9,1.9c0.5,0.1,0.9,0.6,0.8,1.2C827.5,197.6,827,198,826.5,198z
		 M802.8,194.2c0,0-0.1,0-0.1,0l-11.9-1.9c-0.5-0.1-0.9-0.6-0.8-1.2c0.1-0.6,0.6-1,1.1-0.9l11.9,1.9c0.5,0.1,0.9,0.6,0.8,1.2
		C803.7,193.9,803.3,194.2,802.8,194.2z M282.5,192.4c-0.1,0-0.2,0-0.2,0c-3.9-1.1-7.8-2.2-11.6-3.4c-0.5-0.2-0.8-0.8-0.7-1.3
		c0.1-0.6,0.7-0.9,1.2-0.8c3.8,1.2,7.7,2.3,11.6,3.3c0.5,0.1,0.9,0.7,0.7,1.3C283.3,192,282.9,192.4,282.5,192.4z M779.1,190.5
		c0,0-0.1,0-0.1,0c-4.1-0.6-8.1-1.3-11.9-1.8c-0.5-0.1-0.9-0.6-0.8-1.2c0.1-0.6,0.6-1,1.1-0.9c3.8,0.6,7.7,1.2,11.9,1.8
		c0.5,0.1,0.9,0.6,0.8,1.2C780,190.1,779.6,190.5,779.1,190.5z M482.1,188.9c-0.4,0-0.8-0.3-0.9-0.7c-0.2-0.6,0.1-1.2,0.6-1.4
		c3.8-1.4,7.7-2.7,11.5-4c0.5-0.2,1.1,0.2,1.2,0.7c0.2,0.6-0.1,1.2-0.7,1.4c-3.8,1.2-7.6,2.5-11.4,3.9
		C482.3,188.9,482.2,188.9,482.1,188.9z M755.3,186.8c0,0-0.1,0-0.1,0c-4.2-0.6-8.1-1.2-11.9-1.8c-0.5-0.1-0.9-0.6-0.9-1.2
		c0.1-0.6,0.6-1,1.1-0.9c3.8,0.6,7.7,1.1,11.9,1.8c0.5,0.1,0.9,0.6,0.9,1.2C756.3,186.4,755.8,186.8,755.3,186.8z M259.3,185.4
		c-0.1,0-0.2,0-0.3,0c-3.9-1.3-7.7-2.6-11.5-3.9c-0.5-0.2-0.8-0.8-0.6-1.4c0.2-0.6,0.7-0.9,1.3-0.7c3.7,1.3,7.6,2.6,11.4,3.9
		c0.5,0.2,0.8,0.8,0.7,1.4C260.2,185.1,259.8,185.4,259.3,185.4z M731.6,183.3c0,0-0.1,0-0.1,0c-4.2-0.6-8.2-1.1-11.9-1.6
		c-0.5-0.1-0.9-0.6-0.9-1.2c0.1-0.6,0.6-1,1.1-1c3.7,0.5,7.6,1,11.9,1.6c0.5,0.1,0.9,0.6,0.9,1.2
		C732.5,182.9,732.1,183.3,731.6,183.3z M505.1,181.6c-0.4,0-0.9-0.3-1-0.8c-0.1-0.6,0.2-1.2,0.7-1.3c3.8-1,7.8-2,11.7-3
		c0.5-0.1,1.1,0.3,1.2,0.8c0.1,0.6-0.2,1.2-0.8,1.3c-3.9,0.9-7.9,1.9-11.7,2.9C505.2,181.5,505.2,181.6,505.1,181.6z M707.8,180.2
		c0,0-0.1,0-0.1,0c-4.2-0.5-8.2-1-11.9-1.4c-0.5-0.1-1-0.6-0.9-1.2c0.1-0.6,0.5-1,1.1-1c3.7,0.4,7.7,0.8,11.9,1.4
		c0.5,0.1,0.9,0.6,0.9,1.2C708.7,179.7,708.3,180.2,707.8,180.2z M684,177.7C683.9,177.7,683.9,177.7,684,177.7
		c-4.1-0.3-8-0.5-12-0.7c-0.6,0-1-0.5-1-1.1c0-0.6,0.5-1.1,1-1.1c4,0.2,7.9,0.4,12,0.7c0.6,0,1,0.6,0.9,1.2
		C684.9,177.3,684.5,177.7,684,177.7z M236.5,177.3c-0.1,0-0.2,0-0.3-0.1c-3.9-1.5-7.7-3-11.3-4.5c-0.5-0.2-0.8-0.8-0.6-1.4
		c0.2-0.6,0.8-0.8,1.3-0.6c3.6,1.5,7.4,3,11.2,4.5c0.5,0.2,0.8,0.8,0.6,1.4C237.3,177,236.9,177.3,236.5,177.3z M660.1,176.7
		L660.1,176.7l-1.9,0c-3.1-0.1-6.4-0.1-10.1-0.2c-0.6,0-1-0.5-1-1.1c0-0.6,0.5-1.1,1-1.1c3.7,0.1,7,0.1,10.1,0.2l1.9,0
		c0.6,0,1,0.5,1,1.1C661,176.2,660.6,176.7,660.1,176.7z M528.5,176.1c-0.5,0-0.9-0.4-1-0.9c-0.1-0.6,0.3-1.2,0.8-1.3
		c3.4-0.7,7-1.3,10.6-1.9l1.3-0.2c0.5-0.1,1.1,0.3,1.1,0.9c0.1,0.6-0.3,1.2-0.8,1.2l-1.3,0.2c-3.6,0.6-7.1,1.2-10.5,1.9
		C528.7,176.1,528.6,176.1,528.5,176.1z M636.1,176C636.1,176,636.1,176,636.1,176c-3.7-0.2-7.6-0.5-12-0.9c-0.6,0-1-0.6-0.9-1.2
		c0-0.6,0.5-1.1,1.1-1c4.4,0.4,8.3,0.7,11.9,0.9c0.6,0,1,0.5,0.9,1.1C637.1,175.5,636.6,176,636.1,176z M612.2,174
		C612.2,174,612.1,174,612.2,174l-0.4,0c-3.9-0.4-7.8-0.7-11.6-1.1c-0.6,0-1-0.6-0.9-1.2c0-0.6,0.5-1,1.1-1
		c3.9,0.3,7.8,0.7,11.7,1.1l0.3,0c0.6,0.1,1,0.6,0.9,1.2C613.1,173.6,612.7,174,612.2,174z M552.3,172.4c-0.5,0-0.9-0.4-1-1
		c0-0.6,0.4-1.1,0.9-1.2c3.9-0.4,8-0.6,12-0.8c0.5,0,1,0.5,1,1.1c0,0.6-0.4,1.1-1,1.1C560.3,171.8,556.3,172.1,552.3,172.4
		C552.3,172.4,552.3,172.4,552.3,172.4z M588.3,172.1C588.2,172.1,588.2,172.1,588.3,172.1c-4.3-0.3-8.2-0.4-12-0.5
		c-0.6,0-1-0.5-1-1.1c0-0.6,0.5-1.1,1-1.1c3.8,0.1,7.8,0.2,12,0.5c0.6,0,1,0.5,0.9,1.2C589.2,171.6,588.8,172.1,588.3,172.1z
		 M214.1,167.8c-0.1,0-0.3,0-0.4-0.1c-3.8-1.8-7.5-3.6-11-5.4c-0.5-0.3-0.7-0.9-0.5-1.5c0.2-0.5,0.8-0.8,1.3-0.5
		c3.5,1.8,7.1,3.6,10.9,5.3c0.5,0.2,0.7,0.9,0.5,1.4C214.8,167.6,214.5,167.8,214.1,167.8z M192.4,156.6c-0.2,0-0.3,0-0.5-0.1
		c-1.8-1.1-3.6-2.1-5.3-3.2c-1.8-1.1-3.5-2.2-5.2-3.3c-0.5-0.3-0.6-1-0.3-1.5c0.3-0.5,0.9-0.7,1.4-0.4c1.6,1.1,3.3,2.2,5.1,3.3
		c1.7,1.1,3.5,2.1,5.3,3.2c0.5,0.3,0.7,0.9,0.4,1.5C193.1,156.4,192.7,156.6,192.4,156.6z M171.9,143c-0.2,0-0.4-0.1-0.6-0.2
		c-3.7-2.9-6.8-5.6-9.4-8.3c-0.4-0.4-0.4-1.1,0-1.5c0.4-0.4,1-0.5,1.4-0.1c2.6,2.6,5.6,5.2,9.2,8.1c0.5,0.3,0.6,1,0.2,1.5
		C172.5,142.8,172.2,143,171.9,143z M155,124.8c-0.3,0-0.7-0.2-0.9-0.5c-2.1-3.9-3-7.4-4-10.9l-0.4-1.5c-0.2-0.6,0.1-1.2,0.7-1.4
		c0.5-0.2,1.1,0.1,1.2,0.7l0.4,1.5c0.9,3.5,1.8,6.8,3.8,10.4c0.3,0.5,0.1,1.2-0.4,1.5C155.3,124.7,155.2,124.8,155,124.8z
		 M145.8,100.8c-0.3,0-0.6-0.2-0.8-0.5c-1-1.7-2.2-3.3-3.6-4.9c-1.4-1.7-2.7-3.4-4-5c-0.4-0.5-0.3-1.2,0.1-1.5
		c0.4-0.4,1.1-0.3,1.4,0.1c1.3,1.7,2.6,3.3,3.9,5c1.4,1.7,2.7,3.4,3.7,5.2c0.3,0.5,0.2,1.2-0.3,1.5
		C146.2,100.7,146,100.8,145.8,100.8z M130.9,80.3c-0.3,0-0.6-0.2-0.8-0.5c-0.6-0.9-1.1-1.8-1.7-2.6c-1.9-3-3.6-5.5-5.4-7.9
		c-0.4-0.5-0.3-1.2,0.1-1.5c0.4-0.4,1.1-0.3,1.4,0.1c1.9,2.4,3.5,5,5.5,8c0.5,0.8,1.1,1.7,1.7,2.6c0.3,0.5,0.2,1.2-0.2,1.5
		C131.3,80.3,131.1,80.3,130.9,80.3z M114.9,61c-0.2,0-0.4-0.1-0.6-0.2c-2.2-1.6-4.7-3.2-7.7-4.7c-0.9-0.4-1.8-0.9-2.7-1.3
		c-0.5-0.2-0.8-0.9-0.6-1.4c0.2-0.6,0.8-0.8,1.3-0.6c1,0.4,1.9,0.9,2.8,1.3c3.1,1.6,5.7,3.2,8,4.9c0.5,0.3,0.6,1,0.3,1.5
		C115.6,60.9,115.3,61,114.9,61z M92.8,51.3c-0.1,0-0.1,0-0.2,0c-3.5-0.8-7.3-1.5-11.8-2.2c-0.5-0.1-0.9-0.6-0.8-1.2
		c0.1-0.6,0.6-1,1.1-0.9c4.5,0.8,8.3,1.4,11.9,2.3c0.5,0.1,0.9,0.7,0.8,1.3C93.7,51,93.3,51.3,92.8,51.3z M69.2,47
		c-0.1,0-0.1,0-0.2,0c-4.4-0.8-8.2-1.6-11.8-2.6c-0.5-0.1-0.9-0.7-0.7-1.3c0.1-0.6,0.7-1,1.2-0.8c3.6,0.9,7.3,1.7,11.7,2.5
		c0.5,0.1,0.9,0.7,0.8,1.3C70.1,46.6,69.6,47,69.2,47z M45.8,41c-0.1,0-0.2,0-0.3-0.1c-3.9-1.4-7.7-3-11.3-4.8
		c-0.5-0.2-0.7-0.9-0.5-1.4c0.2-0.6,0.8-0.8,1.3-0.6c3.5,1.7,7.3,3.3,11.1,4.7c0.5,0.2,0.8,0.8,0.6,1.4C46.7,40.7,46.3,41,45.8,41z
		 M24,30.3c-0.2,0-0.3,0-0.5-0.1c-3.8-2.4-7.2-4.8-10.1-7.3c-0.4-0.4-0.5-1.1-0.2-1.5c0.3-0.5,1-0.6,1.4-0.2
		c2.9,2.4,6.2,4.8,9.9,7.1c0.5,0.3,0.6,1,0.4,1.5C24.7,30.1,24.3,30.3,24,30.3z M5.3,14.1c-0.3,0-0.6-0.1-0.8-0.4
		C0.6,8.2,0,4.1,0,2.1c0-0.8,0.1-1.2,0.1-1.3C0.2,0.3,0.8-0.1,1.3,0c0.5,0.1,0.9,0.7,0.7,1.3l0,0c0,0-0.1,0.3-0.1,0.8
		c0,1.7,0.5,5.3,4.1,10.2c0.3,0.5,0.3,1.2-0.2,1.5C5.7,14,5.5,14.1,5.3,14.1z"/>
</g>
</svg>
