<?xml version="1.0" encoding="utf-8"?>
<!-- Generator: Adobe Illustrator 22.0.1, SVG Export Plug-In . SVG Version: 6.00 Build 0)  -->
<svg version="1.1" id="Layer_1" xmlns="http://www.w3.org/2000/svg" xmlns:xlink="http://www.w3.org/1999/xlink" x="0px" y="0px"
	 viewBox="0 0 118 74.2" style="enable-background:new 0 0 118 74.2;" xml:space="preserve">
<style type="text/css">
	.st0{fill:none;stroke:#1C1B1C;stroke-miterlimit:10;}
</style>
<g>
	<g>
		<path class="st0" d="M26.2,41.2v18.1c0,0,17.4-7.2,32.8-7.2c15.4,0,32.8,7.2,32.8,7.2V41c0,0-16.6-8.8-33.1-8.8
			C42.3,32.2,26.2,41.2,26.2,41.2L26.2,41.2z M26.2,41.2"/>
		<path class="st0" d="M110.4,36.9l6.5-3.5l-6.5-3.6v-1.7c0,0,1.8-9.3-8.6-4.5c-0.5,0.3-0.8,0.6-0.9,0.9L57.7,0.6L1.1,33l21.4,9.7
			v-3.1c0,0,17.9-10.1,36.3-10.1c18.4,0,36.9,9.8,36.9,9.8v5.5l11.8-6.3v25.7h-3.9v9.1l5.2-3.6l5.8,3.6v-9.1h-4.2L110.4,36.9
			L110.4,36.9z M107.5,26.5v1.7l-3.4-1.9C105.3,25.4,107.5,24.3,107.5,26.5L107.5,26.5z M106.4,36.5c-1.5,0-2.8-1.2-2.8-2.8
			c0-1.5,1.2-2.8,2.8-2.8c1.5,0,2.8,1.2,2.8,2.8C109.1,35.3,107.9,36.5,106.4,36.5L106.4,36.5z M106.4,36.5"/>
	</g>
</g>
</svg>
