<?xml version="1.0" encoding="utf-8"?>
<!-- Generator: Adobe Illustrator 22.0.1, SVG Export Plug-In . SVG Version: 6.00 Build 0)  -->
<svg version="1.1" id="Layer_1" xmlns="http://www.w3.org/2000/svg" xmlns:xlink="http://www.w3.org/1999/xlink" x="0px" y="0px"
	 viewBox="0 0 1235.9 1049.4" style="enable-background:new 0 0 1235.9 1049.4;" xml:space="preserve">
<style type="text/css">
	.st0{opacity:0.5;fill:none;stroke:#333338;stroke-width:3;stroke-miterlimit:10;stroke-dasharray:12;}
</style>
<path class="st0" d="M405,1.5c-113,26-90.3,19.9-100.8,22.8c-95.5,26-165.3,109.2-158.7,210.9c8.5,130.9,81.3,143.5,190.2,132.7
	c124.2-12.4,247.7-31.9,371.6-47.2c108.2-13.4,240.4-45.2,349.4-26.3c45.3,7.8,85.5,20.2,111.6,65.4
	c42.4,73.3-14.1,104.5-43.7,165.2c-32.2,66.1-21.7,158.4,19.8,220.5c50.5,75.6,136.6,106.6,59,201.2
	c-127.6,155.6-320-14.8-423.8-112.9C605.3,668.9-8.7,729.1,1.6,1049.4"/>
</svg>
