<?xml version="1.0" encoding="utf-8"?>
<!-- Generator: Adobe Illustrator 22.0.1, SVG Export Plug-In . SVG Version: 6.00 Build 0)  -->
<svg version="1.1" id="Layer_1" xmlns="http://www.w3.org/2000/svg" xmlns:xlink="http://www.w3.org/1999/xlink" x="0px" y="0px"
	 viewBox="0 0 82.6 83.2" style="enable-background:new 0 0 82.6 83.2;" xml:space="preserve">
<style type="text/css">
	.st0{stroke:#FFBE08;stroke-width:0.2;stroke-miterlimit:10;}
	.st1{fill:none;stroke:#FFBE08;stroke-width:0.2;stroke-miterlimit:10;}
</style>
<g>
	<path class="st0" d="M60.5,32.9c0,0-0.1,0-0.1,0C56.4,34.2,48.9,38,48,38.4c-0.2,0.1-0.3,0.3-0.2,0.5c0.1,0.1,0.2,0.2,0.3,0.2
		c0,0,0.1,0,0.2,0c0.1,0,8.2-4.2,12.3-5.5c0.2-0.1,0.3-0.3,0.2-0.5C60.8,33,60.6,32.9,60.5,32.9z"/>
	<path class="st0" d="M60.5,16.3c0,0-0.1,0-0.1,0c-3.9,1.2-11.5,5.1-12.4,5.5c-0.2,0.1-0.3,0.3-0.2,0.5c0.1,0.2,0.2,0.2,0.3,0.2
		c0,0,0.1,0,0.2,0c0.9-0.4,8.4-4.3,12.3-5.5c0.2-0.1,0.3-0.3,0.2-0.5C60.8,16.4,60.6,16.3,60.5,16.3z"/>
	<path class="st0" d="M1.1,22.2V76c0,3.2,2.6,5.9,5.9,5.9h68.6c3.2,0,5.9-2.6,5.9-5.9V22.2c0-0.2-0.2-0.4-0.4-0.4s-0.4,0.2-0.4,0.4
		V76c0,2.8-2.3,5.1-5.1,5.1H41.7v-4.9l0.7-0.2c2.1-0.7,7.4-2.4,12.7-2.4c12.1,0,20.4,2.7,20.5,2.7c0.1,0,0.2,0,0.3-0.1
		c0.1-0.1,0.2-0.2,0.2-0.3V15.3c0-0.2-0.1-0.3-0.3-0.4c0,0-1.1-0.2-2.9-0.6c-0.3,0-0.4,0.1-0.4,0.3c0,0.1,0,0.2,0.1,0.3
		c0,0,0.1,0.1,0.2,0.2c0.7,0.1,1.3,0.2,1.8,0.3l0.8,0.2v59.9L74,75.1c-3.2-0.8-10-2.3-19-2.3c-5.9,0-11.7,2-13.3,2.6l-0.4,0.1
		l-0.4-0.2c-1.7-0.8-6.4-2.6-12-2.6c-9.2,0-16.7,1.5-20.4,2.3l-1.2,0.3V15.6l0.8-0.2c3-0.7,11.1-2.5,20.8-2.5
		c5.2,0,9.7,1.6,11.4,2.3l0.6,0.3v54.9c0,0.1,0.1,0.3,0.2,0.3c0.1,0.1,0.3,0.1,0.4,0c1.5-0.9,14.5-8.5,26-12.4
		c0.2-0.1,0.3-0.2,0.3-0.4V1.5c0-0.1-0.1-0.2-0.2-0.3c-0.1-0.1-0.2-0.1-0.3,0c-10.8,4.1-21.9,11-22,11.1c-0.1,0.1-0.2,0.2-0.2,0.2
		c0,0.1,0,0.2,0,0.3c0.1,0.2,0.3,0.2,0.5,0.1c0.1,0,9.8-6.1,20-10.3L67,2.1v55.7L66.3,58C56.9,61.3,47,66.8,43.1,69l-1.5,0.9V15.3
		c0-0.1-0.1-0.3-0.2-0.3c-0.6-0.3-5.9-2.8-12.5-2.8c-12.2,0-21.7,2.7-22.1,2.8c-0.2,0-0.3,0.2-0.3,0.4V76c0,0.1,0.1,0.2,0.2,0.3
		c0.1,0,0.1,0.1,0.2,0.1l0.1,0c1-0.3,10.2-2.7,21.9-2.7c5.2,0,9.7,1.6,11.4,2.4l0.6,0.3v4.9H7c-2.8,0-5.1-2.3-5.1-5.1V22.2
		c0-0.2-0.2-0.4-0.4-0.4C1.3,21.9,1.1,22,1.1,22.2z"/>
	<rect x="0.1" y="0.1" class="st1" width="82.4" height="83"/>
	<path class="st0" d="M60.5,24.6c0,0-0.1,0-0.1,0C56.3,25.9,48.3,30,48,30.2c-0.2,0.1-0.3,0.3-0.2,0.5c0.1,0.1,0.2,0.2,0.3,0.2
		c0,0,0.1,0,0.2,0c0.1,0,8.2-4.2,12.3-5.5c0.2-0.1,0.3-0.3,0.2-0.5C60.8,24.7,60.6,24.6,60.5,24.6z"/>
	<path class="st0" d="M60.5,41.2c0,0-0.1,0-0.1,0c-4.1,1.3-12.1,5.4-12.4,5.5c-0.2,0.1-0.3,0.3-0.2,0.5c0.1,0.2,0.2,0.2,0.3,0.2
		c0,0,0.1,0,0.2,0c0.1,0,8.2-4.2,12.3-5.5c0.1,0,0.2-0.1,0.2-0.2c0-0.1,0.1-0.2,0-0.3C60.8,41.2,60.6,41.2,60.5,41.2z"/>
	<path class="st0" d="M15.1,27.4c-0.1,0-0.2,0.1-0.2,0.2c0,0.1-0.1,0.2,0,0.3c0.1,0.2,0.3,0.3,0.5,0.3c0,0,5-1.4,10.9-1.4
		c2.5,0,4.7,0.2,6.7,0.7c0.2,0,0.4-0.1,0.4-0.3c0-0.2-0.1-0.4-0.3-0.4c-2.1-0.5-4.4-0.7-6.9-0.7C20.5,26,15.6,27.2,15.1,27.4z"/>
	<path class="st0" d="M15.1,35.7c-0.2,0.1-0.3,0.3-0.3,0.5c0.1,0.2,0.3,0.3,0.5,0.3c0,0,5.1-1.4,10.9-1.4c2.5,0,4.7,0.2,6.7,0.7
		c0.2,0,0.4-0.1,0.4-0.3c0-0.2-0.1-0.4-0.3-0.4c-2.1-0.5-4.4-0.7-6.9-0.7C20.3,34.3,15.3,35.6,15.1,35.7z"/>
	<path class="st0" d="M60.5,49.4c0,0-0.1,0-0.1,0C56.2,50.8,48.1,54.9,48,55c-0.1,0.1-0.2,0.2-0.2,0.2c0,0.1,0,0.2,0,0.3
		c0.1,0.1,0.2,0.2,0.3,0.2c0,0,0.1,0,0.2,0c0.9-0.4,8.4-4.3,12.3-5.5c0.1,0,0.2-0.1,0.2-0.2c0-0.1,0.1-0.2,0-0.3
		C60.8,49.5,60.6,49.4,60.5,49.4z"/>
	<path class="st0" d="M15.1,43.9c-0.2,0.1-0.3,0.3-0.3,0.5c0.1,0.2,0.3,0.3,0.5,0.3c0,0,5-1.4,10.9-1.4c2.5,0,4.7,0.2,6.7,0.7
		c0.2,0,0.4-0.1,0.4-0.3c0-0.1,0-0.2,0-0.3c0,0-0.1-0.1-0.2-0.2c-2.1-0.5-4.4-0.7-6.9-0.7C20.3,42.5,15.3,43.9,15.1,43.9z"/>
	<path class="st0" d="M15.1,60.5c-0.2,0.1-0.3,0.3-0.3,0.5c0.1,0.2,0.2,0.3,0.5,0.3c0,0,5.1-1.4,10.9-1.4c2.5,0,4.7,0.2,6.7,0.7
		c0.2,0,0.4-0.1,0.4-0.3c0-0.2-0.1-0.4-0.3-0.4c-2.1-0.5-4.4-0.7-6.9-0.7C20.3,59.1,15.3,60.4,15.1,60.5z"/>
	<path class="st0" d="M15.1,52.2c-0.2,0.1-0.3,0.3-0.3,0.5c0.1,0.2,0.3,0.3,0.4,0.3c0.1,0,5.1-1.4,10.9-1.4c2.5,0,4.7,0.2,6.7,0.7
		c0.2,0,0.4-0.1,0.4-0.3c0-0.1,0-0.2,0-0.3s-0.1-0.1-0.2-0.2c-2.1-0.5-4.4-0.7-6.9-0.7C20.2,50.8,15.2,52.2,15.1,52.2z"/>
</g>
</svg>
