<?xml version="1.0" encoding="utf-8"?>
<!-- Generator: Adobe Illustrator 22.0.1, SVG Export Plug-In . SVG Version: 6.00 Build 0)  -->
<svg version="1.1" id="Layer_1" xmlns="http://www.w3.org/2000/svg" xmlns:xlink="http://www.w3.org/1999/xlink" x="0px" y="0px"
	 viewBox="0 0 1366 621.5" style="enable-background:new 0 0 1366 621.5;" xml:space="preserve">
<style type="text/css">
	.st0{fill:url(#SVGID_1_);}
	.st1{fill:none;stroke:#FFBE08;stroke-miterlimit:10;}
	.st2{fill:none;stroke:#FFBE08;stroke-width:3;stroke-miterlimit:10;stroke-dasharray:12;}
	.st3{fill:url(#SVGID_2_);}
	.st4{fill:url(#SVGID_3_);}
</style>
<linearGradient id="SVGID_1_" gradientUnits="userSpaceOnUse" x1="683" y1="619.9535" x2="683" y2="-9.094947e-13">
	<stop  offset="0" style="stop-color:#4E4D5C"/>
	<stop  offset="1" style="stop-color:#333338"/>
</linearGradient>
<rect class="st0" width="1366" height="620"/>
<path class="st1" d="M1014,295.1l13.1,10.8c0,0,10.1-0.1,0,4c-10.1,4.1-12.3-19.3-19.2-13.6c-6.9,5.7,13.2,9.7,10.1,14.1
	c-3.1,4.3-11.7-16.4-14.4-13.7c-2.7,2.7,14.7,13,9.7,16.3s-10-16.3-12.3-13.7c-2.3,2.7,15.7,17.3,9,16c-6.7-1.3-15.3-24-13.3-15.7
	c2,8.3,17.2,21.6,9.9,17c-7.3-4.6-12.6-22-12.9-14.3c-0.3,7.7,15.3,16,9.7,17.3c-5.7,1.3-13.7-22-14.3-16.7
	c-0.7,5.3,16,18.3,11.3,19.3c-4.7,1-12.3-20.3-14.7-16.3s16.7,18.3,11.7,18c-5-0.3-12.3-16.7-15-16c-2.7,0.7,15.3,17,11.3,18.3
	s-13.7-20.7-16-17c-2.3,3.7,18,21.7,12.7,20c-5.3-1.7-14.2-21.2-16.4-17.1s17.7,17.8,13.4,19.4c-4.3,1.7-15.7-22.7-18-16.7
	c-2.3,6,21.7,18.7,15,20.7c-6.7,2-17.7-23.3-18.7-18.3s18.1,19.2,15.7,21.6c-2.4,2.4-17.4-22.6-19.1-19.3c-1.7,3.3,23.7,21,15.7,24
	s-14.7-25.3-19.7-22c-5,3.3,18.7,23.7,16.7,26c-2,2.3-20.7-27-21.7-21.3s22,21.4,19.5,25.3c-2.5,4-21.5-27-23.8-22
	c-2.3,5,29.3,25,21.3,28s-20.7-29.7-24.3-24.7c-3.7,5,23.7,25.7,22.3,28.3c-1.3,2.7-24.9-29.4-27.9-23.1
	c-3.1,6.4,29.3,23.4,26.6,27.1c-2.7,3.7-29.7-28.7-31-23c-1.3,5.7,34,26,29.7,27.3c-4.3,1.3-31-25-33-22.7
	c-2,2.3,35.7,23.3,31.3,25.7c-4.3,2.3-31.5-26-34.4-21c-2.9,5,36.4,21.3,33.1,24.7s-33.7-23-37-18.3c-3.3,4.7,39.3,18.7,37,22.7
	s-39-21.7-40.3-18c-1.3,3.7,42.3,18.7,39.3,23c-3,4.3-40-24.3-42.3-17.7c-2.3,6.7,43.7,15.7,41.7,22c-2,6.3-41.3-21.7-43.7-17
	c-2.3,4.7,46.7,18,43.3,21.7c-3.3,3.7-41.7-21.7-46-15.3s46.3,16.3,45,19s-44-16.3-46.3-13c-2.3,3.3,47.7,14,46.3,17.3
	s-48.7-16-49.3-11c-0.7,5,52.7,10.3,48,17c-4.7,6.7-50.7-18-49.7-9.3c1,8.7,50.3,10.3,49.3,14.3s-46.7-13.2-49.3-8.4
	c-2.7,4.7,49.3,9.1,49.3,14.4s-49.8-14-50.9-8c-1.1,6,49.9,8.3,50.9,13.3s-52.7-12-52-7.3c0.7,4.7,52,8,53,12.3
	c1,4.3-52-12.7-52.3-7.7s52.7,6.3,53.3,12c0.7,5.7-53.7-13-53.7-7s54,9.3,54.3,12.7c0.3,3.3-54-12.7-54.3-6.7c-0.3,6,53.3,6,54.7,10
	c1.3,4-56.3-9-55-4c1.3,5,56.3,4.3,56.3,8c0,3.7-57.3-8.3-55-3c2.3,5.3,55,2.7,55,6.7s-55.3-5.3-53.1,0c2.1,5.3,52.1,1.7,53.1,4
	c1,2.3-52.7-4-51,1.3c1.7,5.3,52-1.3,52,1c0,2.3-51.7,2-51,5.7c0.7,3.7,51.7-4.7,51.5,0c-0.2,4.7-54.2-2.3-49.5,8.3
	c4.7,10.7,48.7-7.7,51-2.7c2.3,5-51.3,5-47.7,10s49.3-8.3,50-5s-48.6,4-46.3,10s46-7.3,48-4s-49,5.4-45.7,10c3.4,4.6,44.8-10.1,48-5
	s-49.7,3.3-44.7,9.7c5,6.3,42.7-11.3,49-2.7c6.3,8.7-59.7-0.3-43.7,12s42.7-14,46.3-8.7s-43.3,11.3-36.7,18
	c6.7,6.7,37.7-16.7,40.3-12.7c2.7,4-37.7,15.7-33.7,19.3c4,3.7,31.3-19.3,36.3-15.3s-34,18-30.7,20.3c3.3,2.3,32.3-18.3,35.7-16.3
	c3.3,2-37.7,16-28.7,20.3c9,4.3,29.7-19.3,33.7-16.7c4,2.7-35.3,17-24.7,21c10.7,4,24-22.3,28.7-18.3c4.7,4-26.7,17.7-18,22.3
	c8.7,4.7,16.3-20.3,22.7-18.3s-20.7,22-14,23s16.7-23,20.3-21c3.7,2-17.7,22.3-11.7,22.3s8.3-21.3,15.3-20.3s-17.7,19.6-7.3,22.5
	c10.3,2.9,7.3-23.1,12.3-20.5c5,2.7-8.7,20-2.7,20s5-21,9.3-20s-9,20.7-3.3,20c5.7-0.7,2.3-19.3,7.7-19c5.3,0.3-8.7,20.7-2,18.3
	c6.7-2.3,2.7-18,7.3-18c4.7,0-7,20.2,0,18.9c7-1.3-1.7-19.6,4-20.3c5.7-0.7-6,20.3,3,19c9-1.3-1.7-17.3,2.5-18.3
	c4.2-1,1.8,18,6.5,17c4.7-1-5.3-17.7-2-19.3c3.3-1.7,4.7,19.7,6.7,18.3c2-1.3-5.3-17.9,0-20.1c5.3-2.2-3.7,22.8,4.3,18.8s-4-18,1-21
	s0.7,21.3,7,17c6.3-4.3-5-14.7-1.7-18.7s4,19.7,11,14.7s-9-16.3-5.3-20c3.7-3.7,7,21.7,12,17.3c5-4.3-11.3-18.7-8.3-21
	c3-2.3,8.3,19.7,13.3,16.7s-13-14.3-10.3-19c2.7-4.7,11,21.7,15.3,16c4.3-5.7-14.7-15-11-20c3.7-5,12.3,22.3,17,16
	c4.7-6.3-17-16-13.3-21c3.7-5,13.7,20.7,17.7,17.3c4-3.3-16.7-16.7-14-22.3c2.7-5.7,12.3,25,18,19s-18.3-18.3-16-23
	c2.3-4.7,16.7,23,23.3,16.3c6.7-6.7-23-16-21-21s22.7,20,27.7,12.7s-28-13-25.7-17.7c2.3-4.7,27,16,32.3,8.7
	c5.3-7.3-31.3-7.7-30-13.3c1.3-5.7,33.3,12,34.3,9s-33.3-11.3-33-16s34.3,17,38.3,8.7c4-8.3-38-7.7-36.7-14.3
	c1.3-6.7,36.7,15.7,40.7,6c4-9.7-40-6.3-39.7-10.7c0.3-4.3,40.7,8.3,43.7,1c3-7.3-45.3-0.3-43.3-5.3s44,6,46.3-2
	c2.3-8-44.1,1.1-44.3-3c-0.2-4.1,43,2.3,46.7-8.3c3.7-10.7-46.8,7.1-46.9,4.2c-0.1-2.9,47.2-7.2,48.6-12.6
	c1.3-5.3-49.7,11.3-48.7,8.3s49-10,50.3-17s-48.3,18.7-49,7.3c-0.7-11.3,50.3-6.3,50.3-14.3s-51,13-50.7,5.5
	c0.3-7.5,50.7-3.5,49.7-11.8s-50.7,13.7-50.7,6c0-7.7,50.3-5,50.3-12s-49.7,12.3-50.3,4.3c-0.7-8,51.3-3.7,50.3-11.3
	s-48.3,9.7-51,3.3s49.7-4.3,50-11c0.3-6.7-51.3,10.7-52.7,4.7c-1.3-6,52.3-3.7,51-12.7c-1.3-9-50.7,13.7-52.3,6.7s54-5.7,51-14
	s-49.7,13.3-52.7,7s54.7-7.7,51.7-14.3c-3-6.7-51.7,17.7-54.7,8c-3-9.7,57.3-2.7,50-18.3c-7.3-15.7-49.3,21-52,11.3
	c-2.7-9.7,52-14.7,48.3-20c-3.7-5.3-51.7,18.3-51.3,14.3c0.3-4,50.2-16.8,47.3-21.4c-2.9-4.6-44.7,22.8-51.5,12.7
	c-6.8-10,58.9-9,47.2-21c-11.7-12-45,24-52.3,14s50.3-17.3,44-22.7c-6.3-5.3-47.1,18.9-47.7,16.9c-0.6-1.9,48-19.3,44-22.3
	c-4-3-44,24-47.3,18s47-19,42-23.7c-5-4.7-43.3,23-46.7,17.7c-3.3-5.3,47.7-17.7,41.7-22.3c-6-4.7-42,23.7-45,18.7
	s44.7-19,36.3-25.3c-8.3-6.3-34.3,25.7-39.3,20.3c-5-5.3,36.3-21.3,31-26.7c-5.3-5.3-34,27-37,23s36.7-24.3,31.7-28.3
	s-31.7,28-35.7,23s35.3-23,30.7-27c-4.7-4-29.7,27.7-34.7,22s36.7-24,30-26s-30.3,24.7-35,20.3c-4.7-4.3,33-18.3,28.3-22.3
	c-4.7-4-29,22-33,18s32-17.3,28.3-22c-3.7-4.7-28,20.3-32.3,18c-4.3-2.3,34.3-18,28.7-22.7c-5.7-4.7-28.3,24-35.7,18.3
	c-7.3-5.7,36-16.7,29.3-21c-6.7-4.3-30.3,20.3-35,15.7c-4.7-4.7,36-15,28.3-20s-29,20.7-31,18c-2-2.7,30-22.3,23.3-23
	c-6.7-0.7-19.7,25.7-25.3,20.3c-5.7-5.3,26.7-19.7,19-24c-7.7-4.3-19,23.3-24.7,18.7c-5.7-4.7,24.3-20.7,17-23
	c-7.3-2.3-17.7,22.3-22.7,18.3s22-19.3,17.3-22c-4.7-2.7-19,24.3-22.3,19.7c-3.3-4.7,22.7-18.3,17.7-22.3c-5-4-18,23.3-23,17.7
	c-5-5.7,23-17.7,18-21.7s-18.7,23-23,19.3c-4.3-3.7,23.3-20,16.3-23.7c-7-3.7-16.3,26.7-20.7,20c-4.3-6.7,19-19,15-22.3
	s-16.7,22-20,17.7c-3.3-4.3,20.4-18.2,16-21c-4.4-2.8-16,18.7-19.3,16.7c-3.3-2,18.2-16.9,14.1-20.3c-4.1-3.4-15.8,21.9-19.4,16.6
	c-3.7-5.3,19-18,15.3-20c-3.7-2-12.3,19-19,14.7c-6.7-4.3,17.6-13,13-18c-4.6-5-15.3,21-19.7,13.7c-4.3-7.3,17.5-13.7,15.1-18.7
	c-2.4-5-14.4,16-19.4,11.3c-5-4.7,18-11,15.7-14.3c-2.3-3.3-17.3,13.7-20.7,9.7c-3.3-4,20.7-10,18.3-13c-2.3-3-19.6,13.3-21.7,9
	s20-9.7,18.3-13.7c-1.7-4-19.3,12.3-22,6.3c-2.7-6,19.7-7,18.3-11.3c-1.3-4.3-17.7,9.7-21,5.3c-3.3-4.3,21.3-5,19.7-9.7
	c-1.7-4.7-20.7,9.7-22.3,3.7c-1.7-6,20-2.7,20.7-8.3c0.7-5.7-23.3,8.3-21.7,3.7c1.7-4.7,18.7-5,20.7-10.3c2-5.3-22,10.3-20.7,2.7
	s21.3-3,22.7-8c1.3-5-20.3,5.7-19.7-2.7c0.7-8.3,20,0,21-2.3s-24.3,1-18.3-5.7c6-6.7,15.7,7.7,19.3,3.3c3.7-4.3-19.3-4-13.7-11.3
	c5.7-7.3,15,10.7,17.3,7c2.3-3.7-16-10.3-11.7-14.3s14,18.3,14,10.7c0-7.7-14-14.3-8.7-13.3c5.3,1,11.7,20.3,11.3,12.7
	c-0.3-7.7-14.3-18-7.3-15.3c7,2.7,8.3,19.3,8.7,13.7s-11-17.7-6-16.3c5,1.3,7,19.7,8.3,14.7c1.3-5-8.3-20-3.3-17.3
	s5.3,22.3,6.7,14.7c1.3-7.7-4.3-22.7-0.3-16.3c4,6.3,0.7,24,4,15.7c3.3-8.3-2.8-21.7,1.6-17.2s-1.2,20.7,3.1,15.9
	s-2.6-20.2,0.4-16.8c2.9,3.4,0.9,17.8,5.3,15.1c4.3-2.7-6.7-18.5-1.4-15.6c5.4,2.9,1.7,13.3,5.7,12.9c4-0.3-6.7-18.3-1-15
	c5.7,3.3,5.7,18.7,7.3,14.7c1.7-4-5-19.2-0.2-15.1c4.9,4.1,0.2,16.1,3.5,14.7c3.3-1.3-3-17.3,1-15.3s0,20,3.3,15.7s-1-18,3.3-15.8
	c4.3,2.2-3.7,16.5,0.3,16.5s1-19,6-17s-6,18.3-2,17c4-1.3,3-19.8,7.7-17.2c4.7,2.6-8.7,20.2-3,18.6c5.7-1.7,3-20.7,8.2-18.5
	c5.2,2.2-9,18.3-2.6,20.1c6.4,1.8,3.4-24.9,8.4-19.6c5,5.3-8.7,21-2,21.3c6.7,0.3,1.7-24.1,6.5-21.4c4.8,2.7-7.5,24.7-2.8,24.4
	c4.7-0.3,4-28.3,8.7-24.3s-7.3,28-3,26.7s4.3-28.5,9.3-25.7c5,2.7-12,27.7-6,27.4c6-0.3,10.3-33,13.7-26.3c3.3,6.7-14,32.3-8.7,29.7
	c5.3-2.7,10-32.7,15-28.7s-18.3,33-11.7,30.7c6.7-2.3,13-34.3,18-30.3s-22.3,36-15,34c7.3-2,18-35.5,24-30.7s-28.3,35.4-20,33.7
	c8.3-1.7,26-37.3,28.3-31c2.3,6.3-29.7,34.7-25,34.7s31.3-37,33-30.3c1.7,6.7-37,35.7-29.3,34.3c7.7-1.3,32.7-36,34.7-30.3
	c2,5.7-38.3,33.3-31.3,35s31.7-36.3,37-32.3s-39.7,35.7-31.7,36.7s35.3-38.7,39-32.7c3.7,6-38.4,34.4-34.7,36.9
	c3.7,2.4,33.7-35.1,38.4-30.9c4.6,4.2-38.5,32.9-34.3,35.7c4.1,2.8,37.3-37.3,39-31.5c1.7,5.8-42.4,32.3-34.8,34.2
	s34.2-36.1,36.5-28.4c2.3,7.7-39.7,34.3-32.3,32s33.7-27.7,34.3-22.3c0.7,5.3-38.7,26.7-31,24c7.7-2.7,28.7-22.7,29.3-17
	c0.7,5.7-32,20.3-24.3,18"/>
<path class="st2" d="M914.6,379.5c-5.2,3.7-16.2,12.2-16.2,20.7c0,8.5-3.5,19,4,25.5c7.5,6.5,35.6,18.5,43,25.9
	c7.4,7.4,18.1,11.3,22.1,22.3"/>
<path class="st2" d="M536,334.6c-1-4-1-16.8-10.5-24.6c-9.5-7.9-19.5-11.9-38.5-12.4s-14-4.5-40,0s-20,4.5-47.5,9s-96.5,18-117.5,0
	s-18.5-16-27.5-24s-29.5-18-32.5-27"/>
<g>
	<linearGradient id="SVGID_2_" gradientUnits="userSpaceOnUse" x1="6.6925" y1="153.8754" x2="248.0919" y2="153.8754">
		<stop  offset="5.945946e-02" style="stop-color:#FFBE08;stop-opacity:0"/>
		<stop  offset="0.3432" style="stop-color:#FFBE08;stop-opacity:0.1919"/>
		<stop  offset="1" style="stop-color:#FFBE08"/>
	</linearGradient>
	<path class="st3" d="M235.8,238.2c-0.5,0-0.9-0.4-1-0.9c-0.1-0.5,0.3-1,0.8-1.1c0.1,0,3-0.8,7.1-8.3c0.3-0.5,0.9-0.7,1.4-0.4
		c0.5,0.3,0.7,0.9,0.4,1.4c-4.7,8.5-8.2,9.2-8.6,9.3C235.9,238.2,235.9,238.2,235.8,238.2z M247.1,218.2c-0.5,0-0.9-0.3-1-0.8
		c-0.4-2.4-2.3-4.3-6.6-6.8c-0.3-0.2-0.7-0.3-1.1-0.4c-0.5-0.1-0.9-0.7-0.7-1.2c0.1-0.5,0.7-0.9,1.2-0.7c0.5,0.1,1.1,0.4,1.5,0.6
		c3.5,2,6.9,4.4,7.5,8.1c0.1,0.5-0.3,1.1-0.8,1.2C247.2,218.2,247.1,218.2,247.1,218.2z M220.1,212.3c-1.7,0-3.5-0.1-5.3-0.3
		c-0.5-0.1-0.9-0.6-0.9-1.1s0.6-0.9,1.1-0.9c3.9,0.5,7.7,0.4,11.7-0.2c0.5-0.1,1.1,0.3,1.1,0.8c0.1,0.5-0.3,1.1-0.8,1.1
		C224.7,212.1,222.4,212.3,220.1,212.3z M203.3,209.2c-0.1,0-0.2,0-0.3-0.1c-3.5-1.2-7.3-2.9-11.1-4.9c-0.5-0.3-0.7-0.9-0.4-1.3
		c0.3-0.5,0.9-0.7,1.3-0.4c3.7,1.9,7.4,3.5,10.8,4.8c0.5,0.2,0.8,0.8,0.6,1.3C204.1,208.9,203.8,209.2,203.3,209.2z M182,198.3
		c-0.2,0-0.4-0.1-0.5-0.2c-1.8-1.1-3.6-2.4-5.4-3.7c-1.4-1-2.9-2-4.5-3c-0.5-0.3-0.6-0.9-0.3-1.4c0.3-0.5,0.9-0.6,1.4-0.3
		c1.6,1,3.1,2.1,4.6,3.1c1.8,1.3,3.6,2.5,5.4,3.6c0.5,0.3,0.6,0.9,0.3,1.4C182.7,198.1,182.3,198.3,182,198.3z M161.7,185.6
		c-0.2,0-0.3,0-0.5-0.1c-3.3-1.8-6.9-3.5-10.7-5.3c-0.5-0.2-0.7-0.8-0.5-1.3c0.2-0.5,0.8-0.7,1.3-0.5c3.8,1.8,7.5,3.6,10.8,5.4
		c0.5,0.3,0.7,0.9,0.4,1.4C162.4,185.4,162,185.6,161.7,185.6z M139.9,175.4c-0.1,0-0.3,0-0.4-0.1c-3.5-1.4-7.2-3-11.1-4.5
		c-0.5-0.2-0.8-0.8-0.6-1.3c0.2-0.5,0.8-0.8,1.3-0.6c3.9,1.5,7.7,3,11.2,4.5c0.5,0.2,0.7,0.8,0.5,1.3
		C140.7,175.2,140.3,175.4,139.9,175.4z M117.5,166.7c-0.1,0-0.2,0-0.3-0.1c-3.4-1.3-7.1-2.6-11.3-4c-0.5-0.2-0.8-0.8-0.6-1.3
		c0.2-0.5,0.8-0.8,1.3-0.6c4.2,1.5,7.9,2.8,11.3,4.1c0.5,0.2,0.8,0.8,0.6,1.3C118.3,166.5,117.9,166.7,117.5,166.7z M94.9,158.7
		c-0.1,0-0.2,0-0.3-0.1l-3.2-1.1c-2.8-1-5.5-1.9-8.2-2.8c-0.5-0.2-0.8-0.8-0.6-1.3s0.8-0.8,1.3-0.6c2.7,0.9,5.4,1.9,8.2,2.8l3.2,1.1
		c0.5,0.2,0.8,0.7,0.6,1.3C95.7,158.5,95.3,158.7,94.9,158.7z M72.2,150.8c-0.1,0-0.2,0-0.3-0.1c-4.3-1.6-8-2.9-11.3-4.2
		c-0.5-0.2-0.8-0.8-0.6-1.3c0.2-0.5,0.8-0.8,1.3-0.6c3.2,1.3,6.9,2.7,11.2,4.2c0.5,0.2,0.8,0.8,0.6,1.3
		C73,150.5,72.6,150.8,72.2,150.8z M49.9,141.9c-0.1,0-0.3,0-0.4-0.1c-4.6-2.2-8.1-4.2-10.6-6.1c-0.4-0.3-0.5-1-0.2-1.4
		c0.3-0.4,1-0.5,1.4-0.2c2.4,1.8,5.7,3.8,10.2,5.9c0.5,0.2,0.7,0.8,0.5,1.3C50.6,141.6,50.2,141.9,49.9,141.9z M33.3,125.9
		c-0.4,0-0.8-0.2-0.9-0.6c-1.2-3-2.8-6.7-4.7-11c-0.2-0.5,0-1.1,0.5-1.3c0.5-0.2,1.1,0,1.3,0.5c1.9,4.3,3.5,8,4.8,11.1
		c0.2,0.5,0,1.1-0.6,1.3C33.5,125.9,33.4,125.9,33.3,125.9z M23.5,103.9c-0.4,0-0.7-0.2-0.9-0.6c-1.7-3.6-3.5-7.3-5.2-10.8
		c-0.2-0.5,0-1.1,0.5-1.3c0.5-0.2,1.1,0,1.3,0.5c1.7,3.5,3.5,7.2,5.2,10.9c0.2,0.5,0,1.1-0.5,1.3C23.8,103.9,23.6,103.9,23.5,103.9z
		 M13.1,82.3c-0.4,0-0.7-0.2-0.9-0.6c-2.1-4.3-4-8-5.4-10.8c-0.2-0.5,0-1.1,0.4-1.3c0.5-0.2,1.1,0,1.3,0.4c1.4,2.7,3.2,6.5,5.4,10.8
		c0.2,0.5,0,1.1-0.5,1.3C13.4,82.3,13.2,82.3,13.1,82.3z"/>
</g>
<path class="st2" d="M963.5,532.6c2.5,5,13.5,16,19.5,19.5s30.5,4,38.5,4s16.4-0.3,25-10.7s7.5-22.3,16.5-32.3c0,0,11.3-14,17.5-15"
	/>
<path class="st2" d="M1149.6,450.1c0,0,25.3-13,23.8-30.5c0,0,4.5-20-3-28s-10.2-7.5-24-10c-13.8-2.5-25.2-3.1-34.9-8
	c-9.7-4.9-19.6-4.5-23.1-11.5s-7.2-17.3-7.2-17.3"/>
<path class="st2" d="M1104.5,297.6c0-1.5,8-18.5,7-23s-5.5-16-12.5-21.5s-20.5-16.5-29-17.5s-27-7-33.5-7s-26.5,0.6-34.5,0
	c-8-0.6-30.5,0.9-34.3,0c-3.9-0.9-12.7-3.5-12.7-3.5s-12.5-7-16-14s0.5-18,0-21"/>
<path class="st2" d="M974.3,160.8c0,0,11.1,3.2,16.4,0s6.6-11.9,9.7-15.4s3.3-6.6,9.9-13c6.7-6.3,13.7-10.8,18.2-9.8
	s11.5,6.5,11.5,6.5"/>
<path class="st2" d="M1055.6,163.8c0,0-0.2,6.8,4.3,14.3s11.3,13,16.5,12c5.2-1,21.9-16.2,32.2-16.8c10.4-0.6,23.8-6.7,26.3-2.2"/>
<path class="st2" d="M970.5,359.1c0,0,9.5-3,14.5-8.7s9-13.3,8-17.3s-4.7-13.1-6.7-19.6c-2-6.5-1.3-10.4,2.2-15.9s6.3-3,4.7-15
	c-1.7-12-14.7-11-20.2-12.5s-12.5-1-21.5,2.5s-13.4,7.5-20,7.5c-6.5,0-12.5,0.5-15.5-6s-4.5-8-4.5-12"/>
<path class="st2" d="M917.3,237.6c0,0,1.7-4-1.8-8s-6.5-3-13.5-8s-7.5-5.2-16-7.8c-8.5-2.7-16.5-14.7-32-12.7c-15.5,2-19.5,3.3-26,8
	c-6.5,4.7-9.5,20-8,25s4,4.5,5.5,9.8s12.5,6.4,13,12.4c0.5,6,10,12.2,8,12.7"/>
<path class="st2" d="M836.5,289.6c0,0-14,14-27,16s-34.4-1.5-49.2-3.5c-14.8-2-32.8-1-56.8-7s-29.5-13.5-43-14s-15-1.5-24.5-4
	s-11,1.5-17.5-10s-1-11.6-3.5-23.3c-2.5-11.8-2-8.3-2-8.3"/>
<path class="st2" d="M551.3,237.9c0,0,0,0,6.5-1.3c6.5-1.3,6.5-6.5,13.5-6c7,0.5,16.1-5.3,16.1-5.3s4-7.3,8-6.2c4,1.2,7-0.1,7-0.1"
	/>
<path class="st2" d="M529.1,245c0,0-12.3,0.9-16.8,4.7c-4.4,3.8-5.9,5.7-13.8,12.7c-7.9,7.1-16.3,10.8-20.7,14.6
	c-4.4,3.8-9.9,5.7-19.3,8.5c-9.4,2.8-22.7,5.2-31.6,6.1s-7.9,5.7-28.6,3.8c-20.7-1.9-32.6,4.2-38.5-2.8s-20.3-9-44.5-34.4
	C291,232.7,298.4,238,298.4,238"/>
<g>
	<linearGradient id="SVGID_3_" gradientUnits="userSpaceOnUse" x1="20.9716" y1="147.619" x2="287.9898" y2="147.619">
		<stop  offset="5.945946e-02" style="stop-color:#FFBE08;stop-opacity:0"/>
		<stop  offset="0.3432" style="stop-color:#FFBE08;stop-opacity:0.1919"/>
		<stop  offset="1" style="stop-color:#FFBE08"/>
	</linearGradient>
	<path class="st4" d="M287,222.1C287,222.1,286.9,222.1,287,222.1c-0.6,0-1-0.5-1-1.1c0,0,0-0.1,0-0.3c0-1.2-0.2-5.5-3-10.6
		c-0.3-0.5-0.1-1.1,0.4-1.4c0.5-0.3,1.1-0.1,1.4,0.4c3.1,5.5,3.3,10.2,3.3,11.5c0,0.3,0,0.5,0,0.5
		C287.9,221.7,287.5,222.1,287,222.1z M276.1,201.6c-0.2,0-0.5-0.1-0.6-0.2c-2-1.7-4.4-3.3-7-4.7c-1-0.5-2-1.1-3-1.6
		c-0.5-0.3-0.7-0.9-0.4-1.4c0.3-0.5,0.9-0.7,1.4-0.4c1,0.5,2,1.1,3,1.6c2.7,1.5,5.2,3.1,7.3,4.9c0.4,0.4,0.5,1,0.1,1.4
		C276.7,201.4,276.4,201.6,276.1,201.6z M255.5,189.4c-0.2,0-0.3,0-0.5-0.1c-4.1-2.2-7.4-3.9-10.6-5.5c-0.5-0.2-0.7-0.8-0.5-1.3
		s0.8-0.7,1.3-0.5c3.2,1.6,6.6,3.3,10.7,5.5c0.5,0.3,0.7,0.9,0.4,1.4C256.2,189.2,255.9,189.4,255.5,189.4z M233.8,179.1
		c-0.1,0-0.2,0-0.4-0.1c-3.8-1.5-7.5-2.7-11.3-3.7c-0.5-0.1-0.8-0.7-0.7-1.2c0.1-0.5,0.7-0.8,1.2-0.7c3.8,1,7.6,2.3,11.5,3.8
		c0.5,0.2,0.8,0.8,0.6,1.3C234.6,178.8,234.2,179.1,233.8,179.1z M210.7,172.9c0,0-0.1,0-0.1,0c-2.4-0.4-4.9-0.6-7.3-0.8
		c-1.5-0.1-3-0.3-4.6-0.4c-0.5-0.1-0.9-0.6-0.9-1.1s0.6-0.9,1.1-0.9c1.5,0.2,3,0.3,4.5,0.4c2.5,0.2,5,0.5,7.5,0.8
		c0.5,0.1,0.9,0.6,0.8,1.1C211.6,172.5,211.2,172.9,210.7,172.9z M186.9,169.7c-0.1,0-0.1,0-0.2,0c-3.7-0.7-7.7-1.6-11.8-2.7
		c-0.5-0.1-0.9-0.7-0.7-1.2s0.7-0.9,1.2-0.7c4,1,8,1.9,11.7,2.7c0.5,0.1,0.9,0.6,0.8,1.2C187.8,169.4,187.4,169.7,186.9,169.7z
		 M163.7,163.8c-0.1,0-0.2,0-0.3,0c-3.7-1.1-7.6-2.4-11.5-3.7c-0.5-0.2-0.8-0.7-0.6-1.3c0.2-0.5,0.7-0.8,1.3-0.6
		c3.8,1.3,7.7,2.5,11.4,3.7c0.5,0.2,0.8,0.7,0.7,1.2C164.5,163.5,164.1,163.8,163.7,163.8z M140.9,156.1c-0.1,0-0.2,0-0.4-0.1
		c-3.8-1.4-7.5-2.9-11.2-4.4c-0.5-0.2-0.8-0.8-0.5-1.3c0.2-0.5,0.8-0.8,1.3-0.5c3.6,1.5,7.4,3,11.1,4.4c0.5,0.2,0.8,0.8,0.6,1.3
		C141.7,155.8,141.3,156.1,140.9,156.1z M118.8,146.9c-0.1,0-0.3,0-0.4-0.1c-2.7-1.2-5.3-2.5-7.8-3.7c-1.1-0.5-2.1-1-3-1.5
		c-0.5-0.2-0.7-0.9-0.4-1.3c0.2-0.5,0.9-0.7,1.3-0.4c1,0.5,2,1,3,1.5c2.5,1.2,5.1,2.5,7.8,3.7c0.5,0.2,0.7,0.8,0.5,1.3
		C119.5,146.6,119.1,146.9,118.8,146.9z M97.4,136c-0.2,0-0.3,0-0.5-0.1c-3.9-2.3-7-4.3-10.1-6.7c-0.4-0.3-0.5-1-0.2-1.4
		c0.3-0.4,1-0.5,1.4-0.2c3,2.3,6.1,4.3,9.9,6.5c0.5,0.3,0.6,0.9,0.4,1.4C98.1,135.8,97.7,136,97.4,136z M78.2,121.7
		c-0.2,0-0.5-0.1-0.7-0.2l-0.5-0.4c-2.4-2.1-5.2-4.5-8.6-7.4c-0.4-0.4-0.5-1-0.1-1.4c0.4-0.4,1-0.5,1.4-0.1c3.4,2.9,6.2,5.3,8.6,7.5
		l0.5,0.4c0.4,0.4,0.5,1,0.1,1.4C78.8,121.6,78.5,121.7,78.2,121.7z M60,106.2c-0.2,0-0.5-0.1-0.6-0.2c-3.3-2.7-6.3-5.2-9.3-7.6
		c-0.4-0.4-0.5-1-0.1-1.4c0.4-0.4,1-0.5,1.4-0.1c2.9,2.4,6,4.9,9.3,7.6c0.4,0.4,0.5,1,0.1,1.4C60.5,106.1,60.2,106.2,60,106.2z
		 M41.4,91c-0.2,0-0.4-0.1-0.6-0.2l-9.3-7.6c-0.4-0.3-0.5-1-0.1-1.4c0.3-0.4,1-0.5,1.4-0.1l9.3,7.6c0.4,0.3,0.5,1,0.1,1.4
		C42,90.9,41.7,91,41.4,91z M22.8,75.8c-0.2,0-0.5-0.1-0.6-0.2l-0.8-0.7c-0.4-0.4-0.5-1-0.1-1.4c0.4-0.4,1-0.5,1.4-0.1l0.8,0.7
		c0.4,0.4,0.5,1,0.1,1.4C23.4,75.7,23.1,75.8,22.8,75.8z"/>
</g>
<path class="st2" d="M673.1,620c0,0,48.9-2.8,69.9-29.7c21-26.8,17-58.7,17-61.7c0-3-7-39.8-27.9-51.7
	c-21-11.9-83.8-24.9-106.8-41.8c-23-16.9-46.9-42.8-49.9-45.8c-3-3-5.7-12.1-14.7-15.9c-9-3.7-15-9.7-15.7-11.7
	c-0.7-2-3.5-11.4-3.5-11.4"/>
<path class="st1" d="M1147.4,467.2l-12.4,24.2c0,0-1.6,5.1,2.4,4.3c4-0.8,7.4-27.4,10.8-26.7c3.4,0.7-13.8,26.9-9.4,29.2
	c4.3,2.3,7.1-25.4,11.7-24.3s-12.5,26-10.2,26.9c2.3,0.9,11.9-23.5,13.3-20.6s-15.4,23.6-11.6,23.5c3.8-0.1,9.6-22.7,14.6-17.4
	c5,5.3-15.1,16.5-13.6,19.1c1.5,2.5,15.8-17.8,16.3-13.6c0.5,4.1-16.5,13.5-14.8,16.2c1.6,2.7,14.9-15.9,16.4-13.1
	c1.5,2.9-16.1,13.6-14.7,15.8c1.4,2.2,14.6-15.7,16.2-12.9c1.6,2.8-16.1,13.2-13.9,16.8c2.2,3.6,13-17.5,15.5-14
	s-15.6,13.9-13.3,17.7s13.1-17.2,15.8-14.2c2.7,3-15.2,15.2-14.4,16.6c0.8,1.4,14.3-16.1,17-13.6c2.8,2.5-16.9,13.9-15,16.9
	s15.4-13.5,17.5-13.3s-17.1,13.8-15.1,17c2,3.3,14.6-18.5,17.1-16.8c2.5,1.7-17.1,17.3-14.3,21.3c2.8,4,12.5-21.8,16.9-19.6
	c4.3,2.1-17.5,20.3-14.1,23.7c3.4,3.4,13.8-23.2,17.6-21.9c3.8,1.2-17.6,22.9-14.2,25.3c3.5,2.4,14.5-24.6,18-24
	c3.5,0.5-19.3,25.3-11.9,27.8c7.4,2.5,12.1-27.3,15.4-27.3c3.3,0-14.2,28.9-7.9,29.8c6.2,0.9,7.7-29.7,9.5-29.8s-7.5,30.7-3.2,30.7
	c4.3,0,3.1-30.1,6.5-30.9c3.4-0.8-7.2,31.2,2.2,30.4c9.5-0.8-4.2-28.8,1.2-31.2c5.4-2.4,0.7,32.4,7.2,28.4c6.5-4-6.3-28.4-4.1-29.6
	s6.8,29.1,10.6,25.6c3.8-3.5-12.5-26.1-8.3-26.8c4.2-0.7,10.5,26.5,14.2,21c3.6-5.4-14.4-20.4-11.6-22.7
	c2.8-2.4,12.9,22.5,15.3,17.3c2.4-5.2-14.6-17.4-12.5-19.7c2.2-2.3,14.1,17.6,15.6,12.5c1.5-5.1-16.4-11.2-14.1-14.1
	s14.4,14.3,15.6,9c1.2-5.3-15.6-8.1-13.3-11.8c2.3-3.7,13.6,11.6,14.5,6.5s-14.5-5.9-12.8-9.2c1.7-3.3,13.1,8.3,13.7,4.2
	c0.7-4.2-13.5-4.8-12.1-7.5c1.4-2.7,12.2,7,12.7,3.3c0.5-3.6-11.6-4.1-11.4-6s11.3,6.5,11.9,2.3c0.5-4.1-12.1-2.1-11.2-5.8
	c1-3.6,11.5,3.1,11.7,1.6c0.2-1.5-11.3-3-10.7-5.3s9.9,4.3,10.7,1.5s-10.8-1.3-10.2-3.8c0.6-2.5,11.3,2.6,11.3-0.4
	c-0.1-3-11.2-0.1-10.7-2.1c0.5-2.1,11.1,1.1,10.6-0.9c-0.5-2-10.8,1.4-10.1-1.2c0.7-2.5,11.9,1.1,8.7-2.1c-3.3-3.2-8-0.5-8-0.5"/>
</svg>
