<?xml version="1.0" encoding="utf-8"?>
<!-- Generator: Adobe Illustrator 22.0.1, SVG Export Plug-In . SVG Version: 6.00 Build 0)  -->
<svg version="1.1" id="Layer_1" xmlns="http://www.w3.org/2000/svg" xmlns:xlink="http://www.w3.org/1999/xlink" x="0px" y="0px"
	 viewBox="0 0 65.3 78.3" style="enable-background:new 0 0 65.3 78.3;" xml:space="preserve">
<style type="text/css">
	.st0{stroke:#333338;stroke-width:0.25;stroke-miterlimit:10;}
</style>
<path class="st0" d="M0.3,78.2H65c0.1,0,0.2-0.1,0.2-0.2V19.8l-0.1-0.2L50.2,0.2l-0.1,0c-0.1,0-0.1,0-0.1,0l-49.7,0
	c-0.1,0-0.2,0.1-0.2,0.2V78C0.1,78.1,0.2,78.2,0.3,78.2z M64.7,19.6H50.3l0-18.8L64.7,19.6z M0.4,0.5h49.5l0,19.3
	c0,0.1,0.1,0.2,0.2,0.2h14.8v57.9H0.4V0.5z"/>
<g>
	<path class="st0" d="M9.8,29.2h44.2c0.1,0,0.2-0.1,0.2-0.2c0-0.1-0.1-0.2-0.2-0.2H9.8c-0.1,0-0.2,0.1-0.2,0.2
		C9.7,29.1,9.8,29.2,9.8,29.2z"/>
	<path class="st0" d="M9.8,19.1h28.9c0.1,0,0.1-0.1,0.1-0.2c0-0.1-0.1-0.2-0.2-0.2H9.8c-0.1,0-0.2,0.1-0.2,0.2
		C9.7,19,9.8,19.1,9.8,19.1z"/>
	<path class="st0" d="M9.8,39.3h44.2c0.1,0,0.2-0.1,0.2-0.2c0-0.1-0.1-0.2-0.2-0.2H9.8c-0.1,0-0.2,0.1-0.2,0.2
		C9.7,39.2,9.8,39.3,9.8,39.3z"/>
	<path class="st0" d="M9.8,49.5h28.9c0.1,0,0.1-0.1,0.1-0.2c0-0.1-0.1-0.2-0.2-0.2H9.8c-0.1,0-0.2,0.1-0.2,0.2
		C9.7,49.4,9.8,49.5,9.8,49.5z"/>
	<path class="st0" d="M54.2,54.3C54.2,54.3,54.2,54.3,54.2,54.3c-0.1-0.2-0.1-0.2-0.2-0.2L38.7,67.6l-5-6.7c0,0-0.1-0.1-0.1-0.1
		c-0.1,0-0.1,0-0.1,0c-0.1,0-0.1,0.2,0,0.2l5.1,6.8c0,0,0.1,0.1,0.1,0.1l0,0l0,0l0,0c0,0,0.1,0,0.1,0l15.3-13.6
		C54.2,54.4,54.2,54.4,54.2,54.3z"/>
</g>
</svg>
