<?xml version="1.0" encoding="utf-8"?>
<!-- Generator: Adobe Illustrator 17.1.0, SVG Export Plug-In . SVG Version: 6.00 Build 0)  -->
<!DOCTYPE svg PUBLIC "-//W3C//DTD SVG 1.1//EN" "http://www.w3.org/Graphics/SVG/1.1/DTD/svg11.dtd">
<svg version="1.1" id="Layer_1" xmlns="http://www.w3.org/2000/svg" xmlns:xlink="http://www.w3.org/1999/xlink" x="0px" y="0px"
	 viewBox="0 0 340.2 340.2" enable-background="new 0 0 340.2 340.2" xml:space="preserve">
<path fill="#FFFFFF" d="M140.1,53.5c15,13.9,21.4,33.2,21.4,56.7c0,10.7-2.1,21.4-5.3,30c-3.2,8.6-8.6,19.3-15,32.1L71.7,308.1H-1.1
	L46,175.4c-22.5-15-33.2-36.4-33.2-65.3c0-23.5,7.5-41.7,21.4-56.7s32.1-21.4,53.5-21.4C108,32.1,126.2,39.6,140.1,53.5z
	 M317.7,53.5c15,13.9,21.4,33.2,21.4,56.7c0,10.7-2.1,21.4-5.3,30c-3.2,8.6-8.6,19.3-15,32.1L248.2,307h-72.7l47.1-132.6
	c-22.5-15-33.2-36.4-33.2-65.3c0-23.5,7.5-41.7,21.4-56.7c13.9-15,32.1-21.4,53.5-21.4C285.6,32.1,303.8,39.6,317.7,53.5L317.7,53.5
	z"/>
</svg>
