<?xml version="1.0" encoding="utf-8"?>
<!-- Generator: Adobe Illustrator 18.0.0, SVG Export Plug-In . SVG Version: 6.00 Build 0)  -->
<!DOCTYPE svg PUBLIC "-//W3C//DTD SVG 1.1//EN" "http://www.w3.org/Graphics/SVG/1.1/DTD/svg11.dtd">
<svg version="1.1" id="Layer_1" xmlns="http://www.w3.org/2000/svg" xmlns:xlink="http://www.w3.org/1999/xlink" x="0px" y="0px"
	 viewBox="0 0 316 418" enable-background="new 0 0 316 418" xml:space="preserve">
<g opacity="0.22">
	<path fill="none" stroke="#FEBE14" stroke-miterlimit="10" d="M103.7,166.2l13.1,10.8c0,0,10.1-0.1,0,4
		c-10.1,4.1-12.3-19.3-19.2-13.6c-6.9,5.7,13.2,9.7,10.1,14.1c-3.1,4.3-11.7-16.4-14.4-13.7c-2.7,2.7,14.7,13,9.7,16.3
		c-5,3.3-10-16.3-12.3-13.7c-2.3,2.7,15.7,17.3,9,16c-6.7-1.3-15.3-24-13.3-15.7c2,8.3,17.2,21.6,9.9,17c-7.3-4.6-12.6-22-12.9-14.3
		c-0.3,7.7,15.3,16,9.7,17.3c-5.7,1.3-13.7-22-14.3-16.7c-0.7,5.3,16,18.3,11.3,19.3s-12.3-20.3-14.7-16.3c-2.3,4,16.7,18.3,11.7,18
		c-5-0.3-12.3-16.7-15-16c-2.7,0.7,15.3,17,11.3,18.3c-4,1.3-13.7-20.7-16-17c-2.3,3.7,18,21.7,12.7,20
		c-5.3-1.7-14.2-21.2-16.4-17.1c-2.3,4.1,17.7,17.8,13.4,19.4c-4.3,1.7-15.7-22.7-18-16.7s21.7,18.7,15,20.7s-17.7-23.3-18.7-18.3
		s18.1,19.2,15.7,21.6c-2.4,2.4-17.4-22.6-19.1-19.3c-1.7,3.3,23.7,21,15.7,24s-14.7-25.3-19.7-22c-5,3.3,18.7,23.7,16.7,26
		c-2,2.3-20.7-27-21.7-21.3c-1,5.7,22,21.4,19.5,25.4c-2.5,4-21.5-27-23.8-22c-2.3,5,29.3,25,21.3,28s-20.7-29.7-24.3-24.7
		c-3.7,5,23.7,25.7,22.3,28.3c-1.3,2.7-24.9-29.4-27.9-23.1c-3.1,6.4,29.3,23.4,26.6,27.1c-2.7,3.7-29.7-28.7-31-23
		c-1.3,5.7,34,26,29.7,27.3c-4.3,1.3-31-25-33-22.7c-2,2.3,35.7,23.3,31.3,25.7c-4.3,2.3-31.5-26-34.4-21
		c-2.9,5,36.4,21.3,33.1,24.6c-3.3,3.3-33.7-23-37-18.3c-3.3,4.7,39.3,18.7,37,22.7c-2.3,4-39-21.7-40.3-18
		c-1.3,3.7,42.3,18.7,39.3,23c-3,4.3-40-24.3-42.3-17.7c-2.3,6.7,43.7,15.7,41.7,22s-41.3-21.7-43.7-17c-2.3,4.7,46.7,18,43.3,21.7
		c-3.3,3.7-41.7-21.7-46-15.3c-4.3,6.3,46.3,16.3,45,19c-1.3,2.7-44-16.3-46.3-13c-2.3,3.3,47.7,14,46.3,17.3
		c-1.3,3.3-48.7-16-49.3-11s52.7,10.3,48,17c-4.7,6.7-50.7-18-49.7-9.3c1,8.7,50.3,10.3,49.3,14.3S1,271.7-1.6,276.4
		c-2.7,4.7,49.3,9.1,49.3,14.4c0,5.3-49.8-14-50.9-8c-1.1,6,49.9,8.3,50.9,13.3s-52.7-12-52-7.3c0.7,4.7,52,8,53,12.3
		s-52-12.7-52.3-7.7c-0.3,5,52.7,6.3,53.3,12c0.7,5.7-53.7-13-53.7-7s54,9.3,54.3,12.7c0.3,3.3-54-12.7-54.3-6.7s53.3,6,54.7,10
		c1.3,4-56.3-9-55-4c1.3,5,56.3,4.3,56.3,8c0,3.7-57.3-8.3-55-3c2.3,5.3,55,2.7,55,6.7s-55.3-5.3-53.1,0c2.1,5.3,52.1,1.7,53.1,4
		s-52.7-4-51,1.3c1.7,5.3,52-1.3,52,1c0,2.3-51.7,2-51,5.7s51.7-4.7,51.5,0c-0.2,4.7-54.2-2.3-49.5,8.3c4.7,10.7,48.7-7.7,51-2.7
		s-51.3,5-47.7,10c3.7,5,49.3-8.3,50-5c0.7,3.3-48.6,4-46.3,10c2.3,6,46-7.3,48-4c2,3.3-49,5.4-45.7,10c3.4,4.6,44.8-10.1,48-5
		c3.2,5-49.7,3.3-44.7,9.7c5,6.3,42.7-11.3,49-2.7c6.3,8.7-59.7-0.3-43.7,12c16,12.3,42.7-14,46.3-8.7c3.7,5.3-43.3,11.3-36.7,18
		c6.7,6.7,37.7-16.7,40.3-12.7s-37.7,15.7-33.7,19.3c4,3.7,31.3-19.3,36.3-15.3s-34,18-30.7,20.3c3.3,2.3,32.3-18.3,35.7-16.3
		c3.3,2-37.7,16-28.7,20.3c9,4.3,29.7-19.3,33.7-16.7s-35.3,17-24.7,21s24-22.3,28.7-18.3c4.7,4-26.7,17.7-18,22.3
		c8.7,4.7,16.3-20.3,22.7-18.3c6.3,2-20.7,22-14,23c6.7,1,16.7-23,20.3-21c3.7,2-17.7,22.3-11.7,22.3s8.3-21.3,15.3-20.3
		s-17.7,19.6-7.3,22.5c10.3,2.9,7.3-23.1,12.3-20.5c5,2.7-8.7,20-2.7,20s5-21,9.3-20s-9,20.7-3.3,20c5.7-0.7,2.3-19.3,7.7-19
		c5.3,0.3-8.7,20.7-2,18.3c6.7-2.3,2.7-18,7.3-18c4.7,0-7,20.2,0,18.9c7-1.3-1.7-19.6,4-20.3c5.7-0.7-6,20.3,3,19
		c9-1.3-1.7-17.3,2.5-18.3c4.2-1,1.8,18,6.5,17c4.7-1-5.3-17.7-2-19.3c3.3-1.7,4.7,19.7,6.7,18.3c2-1.3-5.3-17.9,0-20.1
		c5.3-2.2-3.7,22.8,4.3,18.8c8-4-4-18,1-21c5-3,0.7,21.3,7,17c6.3-4.3-5-14.7-1.7-18.7c3.3-4,4,19.7,11,14.7s-9-16.3-5.3-20
		c3.7-3.7,7,21.7,12,17.3c5-4.3-11.3-18.7-8.3-21c3-2.3,8.3,19.7,13.3,16.7s-13-14.3-10.3-19s11,21.7,15.3,16c4.3-5.7-14.7-15-11-20
		c3.7-5,12.3,22.3,17,16c4.7-6.3-17-16-13.3-21s13.7,20.7,17.7,17.3c4-3.3-16.7-16.7-14-22.3c2.7-5.7,12.3,25,18,19
		c5.7-6-18.3-18.3-16-23c2.3-4.7,16.7,23,23.3,16.3c6.7-6.7-23-16-21-21s22.7,20,27.7,12.7s-28-13-25.7-17.7c2.3-4.7,27,16,32.3,8.7
		c5.3-7.3-31.3-7.7-30-13.3c1.3-5.7,33.3,12,34.3,9s-33.3-11.3-33-16c0.3-4.7,34.3,17,38.3,8.7c4-8.3-38-7.7-36.7-14.3
		c1.3-6.7,36.7,15.7,40.7,6s-40-6.3-39.7-10.7c0.3-4.3,40.7,8.3,43.7,1c3-7.3-45.3-0.3-43.3-5.3s44,6,46.3-2s-44.1,1.1-44.3-3
		c-0.2-4.1,43,2.3,46.7-8.3c3.7-10.7-46.8,7.1-46.9,4.2c-0.1-2.9,47.2-7.2,48.6-12.6c1.3-5.3-49.7,11.3-48.7,8.3s49-10,50.3-17
		c1.3-7-48.3,18.7-49,7.3c-0.7-11.3,50.3-6.3,50.3-14.3s-51,13-50.7,5.5c0.3-7.5,50.7-3.5,49.7-11.8c-1-8.3-50.7,13.7-50.7,6
		c0-7.7,50.3-5,50.3-12s-49.7,12.3-50.3,4.3c-0.7-8,51.3-3.7,50.3-11.3c-1-7.7-48.3,9.7-51,3.3c-2.7-6.3,49.7-4.3,50-11
		c0.3-6.7-51.3,10.7-52.7,4.7s52.3-3.7,51-12.7s-50.7,13.7-52.3,6.7c-1.7-7,54-5.7,51-14c-3-8.3-49.7,13.3-52.7,7
		c-3-6.3,54.7-7.7,51.7-14.3c-3-6.7-51.7,17.7-54.7,8c-3-9.7,57.3-2.7,50-18.3c-7.3-15.7-49.3,21-52,11.3c-2.7-9.7,52-14.7,48.3-20
		c-3.7-5.3-51.7,18.3-51.3,14.3s50.2-16.8,47.3-21.4c-2.9-4.6-44.7,22.8-51.5,12.7c-6.8-10,58.9-9,47.2-21s-45,24-52.3,14
		c-7.3-10,50.3-17.3,44-22.7c-6.3-5.3-47.1,18.9-47.7,16.9c-0.6-1.9,48-19.3,44-22.3s-44,24-47.3,18c-3.3-6,47-19,42-23.7
		c-5-4.7-43.3,23-46.7,17.7c-3.3-5.3,47.7-17.7,41.7-22.3c-6-4.7-42,23.7-45,18.7s44.7-19,36.3-25.3c-8.3-6.3-34.3,25.7-39.3,20.3
		c-5-5.3,36.3-21.3,31-26.7c-5.3-5.3-34,27-37,23s36.7-24.3,31.7-28.3s-31.7,28-35.7,23s35.3-23,30.7-27c-4.7-4-29.7,27.7-34.7,22
		c-5-5.7,36.7-24,30-26c-6.7-2-30.3,24.7-35,20.3c-4.7-4.3,33-18.3,28.3-22.3s-29,22-33,18s32-17.3,28.3-22
		c-3.7-4.7-28,20.3-32.3,18c-4.3-2.3,34.3-18,28.7-22.7c-5.7-4.7-28.3,24-35.7,18.3c-7.3-5.7,36-16.7,29.3-21
		c-6.7-4.3-30.3,20.3-35,15.7c-4.7-4.7,36-15,28.3-20c-7.7-5-29,20.7-31,18c-2-2.7,30-22.3,23.3-23c-6.7-0.7-19.7,25.7-25.3,20.3
		c-5.7-5.3,26.7-19.7,19-24c-7.7-4.3-19,23.3-24.7,18.7c-5.7-4.7,24.3-20.7,17-23c-7.3-2.3-17.7,22.3-22.7,18.3s22-19.3,17.3-22
		c-4.7-2.7-19,24.3-22.3,19.7c-3.3-4.7,22.7-18.3,17.7-22.3s-18,23.3-23,17.7c-5-5.7,23-17.7,18-21.7s-18.7,23-23,19.3
		c-4.3-3.7,23.3-20,16.3-23.7c-7-3.7-16.3,26.7-20.7,20c-4.3-6.7,19-19,15-22.3c-4-3.3-16.7,22-20,17.7s20.4-18.2,16-21
		c-4.4-2.8-16,18.7-19.3,16.7c-3.3-2,18.2-16.9,14.1-20.3c-4.1-3.4-15.8,21.9-19.4,16.6c-3.7-5.3,19-18,15.3-20
		c-3.7-2-12.3,19-19,14.7c-6.7-4.3,17.6-13,13-18c-4.6-5-15.3,21-19.7,13.7c-4.3-7.3,17.5-13.7,15.1-18.7c-2.4-5-14.4,16-19.4,11.3
		s18-11,15.7-14.3c-2.3-3.3-17.3,13.7-20.7,9.7c-3.3-4,20.7-10,18.3-13c-2.3-3-19.6,13.3-21.7,9c-2.1-4.3,20-9.7,18.3-13.7
		c-1.7-4-19.3,12.3-22,6.3c-2.7-6,19.7-7,18.3-11.3c-1.3-4.3-17.7,9.7-21,5.3s21.3-5,19.7-9.7c-1.7-4.7-20.7,9.7-22.3,3.7
		c-1.7-6,20-2.7,20.7-8.3c0.7-5.7-23.3,8.3-21.7,3.7c1.7-4.7,18.7-5,20.7-10.3c2-5.3-22,10.3-20.7,2.7c1.3-7.7,21.3-3,22.7-8
		s-20.3,5.7-19.7-2.7c0.7-8.3,20,0,21-2.3c1-2.3-24.3,1-18.3-5.7c6-6.7,15.7,7.7,19.3,3.3c3.7-4.3-19.3-4-13.7-11.3
		c5.7-7.3,15,10.7,17.3,7c2.3-3.7-16-10.3-11.7-14.3c4.3-4,14,18.3,14,10.7s-14-14.3-8.7-13.3c5.3,1,11.7,20.3,11.3,12.7
		c-0.3-7.7-14.3-18-7.3-15.3s8.3,19.3,8.7,13.7c0.3-5.7-11-17.7-6-16.3c5,1.3,7,19.7,8.3,14.7c1.3-5-8.3-20-3.3-17.3
		c5,2.7,5.3,22.3,6.7,14.7c1.3-7.7-4.3-22.7-0.3-16.3s0.7,24,4,15.7C78.1,16.9,72,3.5,76.4,8c4.4,4.5-1.2,20.7,3.1,15.9
		c4.3-4.8-2.6-20.2,0.4-16.8c2.9,3.4,0.9,17.8,5.3,15.1c4.3-2.7-6.7-18.5-1.4-15.6c5.4,2.9,1.7,13.3,5.7,12.9s-6.7-18.3-1-15
		c5.7,3.3,5.7,18.7,7.3,14.7c1.7-4-5-19.2-0.2-15.1c4.9,4.1,0.2,16.1,3.5,14.7c3.3-1.3-3-17.3,1-15.3s0,20,3.3,15.7
		c3.3-4.3-1-18,3.3-15.8c4.3,2.2-3.7,16.5,0.3,16.5s1-19,6-17s-6,18.3-2,17c4-1.3,3-19.8,7.7-17.2c4.7,2.6-8.7,20.2-3,18.6
		c5.7-1.7,3-20.7,8.2-18.5c5.2,2.2-9,18.3-2.6,20.1c6.4,1.8,3.4-24.9,8.4-19.6c5,5.3-8.7,21-2,21.3c6.7,0.3,1.7-24.1,6.5-21.4
		c4.8,2.7-7.5,24.7-2.8,24.4c4.7-0.3,4-28.3,8.7-24.3c4.7,4-7.3,28-3,26.7c4.3-1.3,4.3-28.5,9.3-25.7c5,2.7-12,27.7-6,27.4
		s10.3-33,13.7-26.3c3.3,6.7-14,32.3-8.7,29.7c5.3-2.7,10-32.7,15-28.7s-18.3,33-11.7,30.7c6.7-2.3,13-34.3,18-30.3s-22.3,36-15,34
		c7.3-2,18-35.5,24-30.7c6,4.7-28.3,35.4-20,33.7c8.3-1.7,26-37.3,28.3-31c2.3,6.3-29.7,34.7-25,34.7c4.7,0,31.3-37,33-30.3
		c1.7,6.7-37,35.7-29.3,34.3c7.7-1.3,32.7-36,34.7-30.3c2,5.7-38.3,33.3-31.3,35c7,1.7,31.7-36.3,37-32.3c5.3,4-39.7,35.7-31.7,36.7
		s35.3-38.7,39-32.7S172,62,175.7,64.4c3.7,2.4,33.7-35.1,38.4-30.9c4.6,4.2-38.5,32.9-34.3,35.7c4.1,2.8,37.3-37.3,39-31.5
		c1.7,5.8-42.4,32.3-34.8,34.2c7.5,1.9,34.2-36.1,36.5-28.4s-39.7,34.3-32.3,32c7.3-2.3,33.7-27.7,34.3-22.3
		c0.7,5.3-38.7,26.7-31,24c7.7-2.7,28.7-22.7,29.3-17c0.7,5.7-32,20.3-24.3,18"/>
	<path fill="none" stroke="#FEBE14" stroke-miterlimit="10" d="M237.1,338.2l-12.4,24.2c0,0-1.6,5.1,2.4,4.3
		c4-0.8,7.4-27.4,10.8-26.7c3.4,0.7-13.8,26.9-9.4,29.2c4.3,2.2,7.1-25.4,11.7-24.3c4.6,1.1-12.5,26-10.2,26.9s11.9-23.5,13.3-20.6
		c1.4,2.9-15.4,23.6-11.6,23.5c3.8-0.1,9.6-22.7,14.6-17.4c5,5.3-15.1,16.5-13.6,19.1c1.5,2.5,15.8-17.8,16.3-13.6
		c0.5,4.1-16.5,13.5-14.8,16.2c1.6,2.7,14.9-15.9,16.4-13.1c1.5,2.9-16.1,13.6-14.7,15.8c1.4,2.2,14.6-15.7,16.2-12.9
		c1.6,2.8-16.1,13.2-13.9,16.8c2.2,3.6,13-17.5,15.5-14c2.5,3.5-15.6,13.9-13.3,17.7c2.3,3.7,13.1-17.2,15.8-14.2
		c2.7,3-15.2,15.2-14.4,16.6c0.8,1.4,14.3-16.1,17-13.6c2.8,2.5-16.9,13.9-15,16.9c1.9,3.1,15.4-13.5,17.5-13.3
		c2,0.2-17.1,13.8-15.1,17c2,3.2,14.6-18.5,17.1-16.8c2.5,1.7-17.1,17.3-14.3,21.3c2.8,4,12.5-21.8,16.9-19.6
		c4.3,2.1-17.5,20.3-14.1,23.7c3.4,3.4,13.8-23.2,17.6-21.9c3.8,1.2-17.6,22.9-14.2,25.3c3.5,2.4,14.5-24.6,18-24
		c3.5,0.5-19.3,25.3-11.9,27.8c7.4,2.5,12.1-27.3,15.4-27.3c3.3,0-14.2,28.9-7.9,29.8c6.2,0.9,7.7-29.7,9.5-29.8
		c1.8-0.1-7.5,30.7-3.2,30.7c4.3,0,3.1-30.1,6.5-30.9c3.4-0.8-7.2,31.2,2.2,30.4c9.5-0.8-4.2-28.8,1.2-31.2
		c5.4-2.4,0.7,32.4,7.2,28.4c6.5-4-6.3-28.4-4.1-29.6c2.3-1.2,6.8,29.1,10.6,25.6c3.8-3.5-12.5-26.1-8.3-26.8
		c4.2-0.7,10.5,26.5,14.2,21c3.6-5.4-14.4-20.4-11.6-22.7c2.8-2.4,12.9,22.5,15.3,17.3c2.4-5.2-14.6-17.4-12.5-19.7
		c2.2-2.3,14.1,17.6,15.6,12.5c1.5-5.1-16.4-11.2-14.1-14.1c2.3-2.9,14.4,14.3,15.6,9c1.2-5.3-15.6-8.1-13.3-11.8
		c2.3-3.7,13.6,11.6,14.5,6.5c0.9-5.1-14.5-5.9-12.8-9.2c1.7-3.3,13.1,8.3,13.7,4.2c0.7-4.2-13.5-4.8-12.1-7.5
		c1.4-2.7,12.2,7,12.7,3.3c0.5-3.6-11.6-4.1-11.4-6c0.3-1.9,11.3,6.5,11.9,2.3c0.5-4.1-12.1-2.1-11.2-5.8c1-3.6,11.5,3.1,11.7,1.6
		c0.2-1.5-11.3-3-10.7-5.3c0.6-2.3,9.9,4.3,10.7,1.5c0.8-2.8-10.8-1.3-10.2-3.8c0.6-2.5,11.3,2.6,11.3-0.4c-0.1-3-11.2,0-10.7-2.1
		c0.5-2.1,11.1,1.1,10.6-0.9c-0.5-2-10.8,1.4-10.1-1.2c0.7-2.5,11.9,1.1,8.7-2.1c-3.3-3.2-8-0.5-8-0.5"/>
</g>
</svg>
