<?xml version="1.0" encoding="utf-8"?>
<!-- Generator: Adobe Illustrator 17.1.0, SVG Export Plug-In . SVG Version: 6.00 Build 0)  -->
<!DOCTYPE svg PUBLIC "-//W3C//DTD SVG 1.1//EN" "http://www.w3.org/Graphics/SVG/1.1/DTD/svg11.dtd">
<svg version="1.1" id="Layer_1" xmlns="http://www.w3.org/2000/svg" xmlns:xlink="http://www.w3.org/1999/xlink" x="0px" y="0px"
	 viewBox="0 0 612 792" enable-background="new 0 0 612 792" xml:space="preserve">
<g>
	<path opacity="0.2" fill="none" stroke="#FEBE14" stroke-miterlimit="10" d="M248.3,349.5l14.5,12c0,0,11.2-0.1,0,4.4
		c-11.2,4.6-13.6-21.3-21.2-15c-7.6,6.3,14.6,10.8,11.2,15.5c-3.4,4.8-13-18.1-15.9-15.1c-2.9,2.9,16.2,14.4,10.7,18
		c-5.5,3.7-11-18-13.6-15.1c-2.6,2.9,17.3,19.2,9.9,17.7c-7.4-1.5-16.9-26.5-14.7-17.3c2.2,9.2,19,23.9,11,18.7
		c-8-5.1-13.9-24.3-14.3-15.8c-0.4,8.5,16.9,17.7,10.7,19.2c-6.3,1.5-15.1-24.3-15.8-18.4c-0.7,5.9,17.7,20.3,12.5,21.4
		c-5.2,1.1-13.6-22.5-16.2-18c-2.6,4.4,18.4,20.3,12.9,19.9c-5.5-0.4-13.6-18.4-16.6-17.7c-2.9,0.7,16.9,18.8,12.5,20.3
		c-4.4,1.5-15.1-22.8-17.7-18.8c-2.6,4.1,19.9,23.9,14,22.1c-5.9-1.8-15.6-23.5-18.1-18.9c-2.5,4.5,19.6,19.6,14.8,21.5
		c-4.8,1.8-17.3-25-19.9-18.4c-2.6,6.6,23.9,20.6,16.6,22.8c-7.4,2.2-19.5-25.8-20.6-20.3c-1.1,5.5,20,21.2,17.4,23.9
		c-2.6,2.6-19.2-25-21.1-21.3c-1.8,3.7,26.2,23.2,17.3,26.5c-8.8,3.3-16.2-28-21.7-24.3c-5.5,3.7,20.6,26.2,18.4,28.7
		c-2.2,2.6-22.8-29.8-23.9-23.6c-1.1,6.3,24.3,23.6,21.6,28c-2.8,4.4-23.8-29.9-26.4-24.3c-2.6,5.5,32.4,27.6,23.6,30.9
		c-8.8,3.3-22.8-32.8-26.9-27.3c-4.1,5.5,26.2,28.4,24.7,31.3c-1.5,2.9-27.5-32.5-30.9-25.5c-3.4,7.1,32.3,25.8,29.4,29.9
		c-2.9,4.1-32.8-31.7-34.3-25.4c-1.5,6.3,37.6,28.7,32.8,30.2c-4.8,1.5-34.3-27.6-36.5-25c-2.2,2.6,39.4,25.8,34.6,28.4
		c-4.8,2.6-34.8-28.7-38-23.2c-3.2,5.5,40.2,23.6,36.5,27.2c-3.7,3.7-37.2-25.4-40.9-20.3s43.5,20.6,40.9,25
		c-2.6,4.4-43.1-23.9-44.6-19.9c-1.5,4.1,46.8,20.6,43.5,25.4c-3.3,4.8-44.2-26.9-46.8-19.5c-2.6,7.4,48.3,17.3,46,24.3
		c-2.2,7-45.7-23.9-48.3-18.8c-2.6,5.2,51.6,19.9,47.9,23.9c-3.7,4.1-46-23.9-50.8-16.9c-4.8,7,51.2,18.1,49.7,21
		c-1.5,2.9-48.6-18-51.2-14.4c-2.6,3.7,52.7,15.5,51.2,19.2c-1.5,3.7-53.8-17.7-54.5-12.2c-0.7,5.5,58.2,11.4,53,18.8
		c-5.2,7.4-56-19.9-54.9-10.3c1.1,9.6,55.6,11.4,54.5,15.8c-1.1,4.4-51.6-14.5-54.5-9.3c-2.9,5.2,54.5,10,54.5,15.9
		c0,5.9-55-15.5-56.3-8.8c-1.2,6.6,55.1,9.2,56.3,14.7c1.1,5.5-58.2-13.3-57.5-8.1c0.7,5.2,57.5,8.8,58.6,13.6
		c1.1,4.8-57.5-14-57.8-8.5c-0.4,5.5,58.2,7,58.9,13.3c0.7,6.3-59.3-14.4-59.3-7.7c0,6.6,59.7,10.3,60,14c0.4,3.7-59.7-14-60-7.4
		c-0.4,6.6,58.9,6.6,60.4,11.1c1.5,4.4-62.3-9.9-60.8-4.4c1.5,5.5,62.3,4.8,62.3,8.8c0,4-63.4-9.2-60.8-3.3
		c2.6,5.9,60.8,2.9,60.8,7.4c0,4.4-61.1-5.9-58.7,0c2.3,5.9,57.6,1.8,58.7,4.4c1.1,2.6-58.2-4.4-56.4,1.5c1.8,5.9,57.5-1.5,57.5,1.1
		s-57.1,2.2-56.4,6.3c0.7,4,57.2-5.2,57,0c-0.2,5.2-59.9-2.6-54.7,9.2c5.2,11.8,53.8-8.5,56.4-2.9c2.6,5.5-56.7,5.5-52.7,11
		c4.1,5.5,54.5-9.2,55.3-5.5c0.7,3.7-53.8,4.4-51.2,11c2.6,6.7,50.8-8.1,53-4.4c2.2,3.7-54.2,6-50.5,11.1
		c3.7,5.1,49.5-11.1,53.1-5.6c3.5,5.6-54.9,3.7-49.4,10.7c5.5,7,47.1-12.5,54.1-2.9c7,9.6-65.9-0.4-48.3,13.3
		c17.7,13.6,47.1-15.5,51.2-9.6c4.1,5.9-47.9,12.5-40.5,19.9c7.4,7.4,41.6-18.4,44.6-14c2.9,4.4-41.6,17.3-37.2,21.4
		c4.4,4,34.6-21.4,40.1-16.9c5.5,4.4-37.6,19.9-33.9,22.5c3.7,2.6,35.7-20.3,39.4-18c3.7,2.2-41.6,17.7-31.7,22.5
		c9.9,4.8,32.8-21.4,37.2-18.4c4.4,2.9-39,18.8-27.3,23.2c11.8,4.4,26.5-24.7,31.7-20.3c5.2,4.4-29.5,19.5-19.9,24.7
		c9.6,5.2,18-22.5,25-20.3c7,2.2-22.8,24.3-15.5,25.4c7.4,1.1,18.4-25.4,22.5-23.2c4.1,2.2-19.5,24.7-12.9,24.7
		c6.6,0,9.2-23.6,16.9-22.5c7.7,1.1-19.5,21.6-8.1,24.8c11.4,3.2,8.1-25.5,13.6-22.6c5.5,3-9.6,22.1-2.9,22.1
		c6.6,0,5.5-23.2,10.3-22.1c4.8,1.1-9.9,22.8-3.7,22.1c6.3-0.7,2.6-21.4,8.5-21c5.9,0.4-9.6,22.8-2.2,20.3
		c7.4-2.6,2.9-19.9,8.1-19.9c5.2,0-7.7,22.3,0,20.9c7.7-1.4-1.8-21.7,4.4-22.4c6.3-0.7-6.6,22.5,3.3,21c9.9-1.5-1.8-19.2,2.8-20.3
		c4.6-1.1,2,19.9,7.2,18.8c5.2-1.1-5.9-19.5-2.2-21.4c3.7-1.8,5.2,21.7,7.4,20.3c2.2-1.5-5.9-19.8,0-22.3c5.9-2.4-4,25.2,4.8,20.8
		c8.8-4.4-4.4-19.9,1.1-23.2c5.5-3.3,0.7,23.6,7.7,18.8c7-4.8-5.5-16.2-1.8-20.6c3.7-4.4,4.4,21.7,12.2,16.2
		c7.7-5.5-9.9-18-5.9-22.1c4.1-4.1,7.7,23.9,13.3,19.2c5.5-4.8-12.5-20.6-9.2-23.2c3.3-2.6,9.2,21.7,14.7,18.4
		c5.5-3.3-14.4-15.8-11.4-21c2.9-5.2,12.2,23.9,16.9,17.7c4.8-6.3-16.2-16.6-12.2-22.1c4-5.5,13.6,24.7,18.8,17.7
		c5.2-7-18.8-17.7-14.7-23.2c4.1-5.5,15.1,22.8,19.5,19.2c4.4-3.7-18.4-18.4-15.5-24.7c2.9-6.3,13.6,27.6,19.9,21
		c6.3-6.6-20.3-20.3-17.7-25.4c2.6-5.2,18.4,25.4,25.8,18.1c7.4-7.4-25.4-17.7-23.2-23.2c2.2-5.5,25,22.1,30.6,14
		c5.5-8.1-30.9-14.4-28.4-19.5c2.6-5.2,29.8,17.7,35.7,9.6c5.9-8.1-34.6-8.5-33.2-14.7c1.5-6.3,36.8,13.3,37.9,9.9
		c1.1-3.3-36.8-12.5-36.5-17.7c0.4-5.2,37.9,18.8,42.4,9.6c4.4-9.2-42-8.5-40.5-15.8c1.5-7.4,40.5,17.3,44.9,6.6
		c4.4-10.7-44.2-7-43.8-11.8c0.4-4.8,44.9,9.2,48.3,1.1c3.3-8.1-50.1-0.4-47.9-5.9c2.2-5.5,48.6,6.6,51.2-2.2
		c2.6-8.8-48.7,1.2-49-3.3c-0.3-4.5,47.5,2.6,51.6-9.2c4.1-11.8-51.7,7.9-51.8,4.7c-0.1-3.2,52.2-8,53.7-13.9
		c1.5-5.9-54.9,12.5-53.8,9.2c1.1-3.3,54.1-11,55.6-18.8c1.5-7.7-53.4,20.6-54.1,8.1c-0.7-12.5,55.6-7,55.6-15.8
		c0-8.8-56.4,14.4-56,6.1c0.4-8.3,56-3.9,54.9-13.1c-1.1-9.2-56,15.1-56,6.6c0-8.5,55.6-5.5,55.6-13.3s-54.9,13.6-55.6,4.8
		c-0.7-8.8,56.7-4.1,55.6-12.5c-1.1-8.5-53.4,10.7-56.4,3.7c-2.9-7,54.9-4.8,55.3-12.2c0.4-7.4-56.7,11.8-58.2,5.2
		c-1.5-6.6,57.8-4.1,56.4-14c-1.5-9.9-56,15.1-57.8,7.4c-1.8-7.7,59.7-6.3,56.4-15.5c-3.3-9.2-54.9,14.7-58.2,7.7
		c-3.3-7,60.4-8.5,57.1-15.8c-3.3-7.4-57.1,19.5-60.4,8.8c-3.3-10.7,63.4-2.9,55.3-20.3c-8.1-17.3-54.5,23.2-57.5,12.5
		c-2.9-10.7,57.5-16.2,53.4-22.1c-4.1-5.9-57.1,20.3-56.7,15.8c0.4-4.4,55.5-18.6,52.2-23.6c-3.3-5.1-49.4,25.1-56.9,14.1
		c-7.5-11.1,65.1-10,52.2-23.2c-12.9-13.3-49.7,26.5-57.8,15.5c-8.1-11.1,55.6-19.2,48.6-25c-7-5.9-52,20.9-52.7,18.7
		c-0.7-2.1,53.1-21.3,48.7-24.6c-4.4-3.3-48.6,26.5-52.3,19.9c-3.7-6.6,51.9-21,46.4-26.2c-5.5-5.2-47.9,25.4-51.6,19.5
		c-3.7-5.9,52.7-19.5,46-24.7c-6.6-5.2-46.4,26.2-49.7,20.6c-3.3-5.5,49.4-21,40.2-28c-9.2-7-37.9,28.4-43.5,22.5
		c-5.5-5.9,40.2-23.6,34.3-29.5c-5.9-5.9-37.6,29.8-40.9,25.4c-3.3-4.4,40.5-26.9,35-31.3c-5.5-4.4-35,30.9-39.4,25.4
		c-4.4-5.5,39-25.4,33.9-29.8c-5.2-4.4-32.8,30.6-38.3,24.3c-5.5-6.3,40.5-26.5,33.2-28.7c-7.4-2.2-33.5,27.3-38.7,22.5
		c-5.2-4.8,36.5-20.3,31.3-24.7c-5.2-4.4-32,24.3-36.5,19.9c-4.4-4.4,35.4-19.2,31.3-24.3c-4.1-5.2-30.9,22.5-35.7,19.9
		c-4.8-2.6,37.9-19.9,31.7-25c-6.3-5.2-31.3,26.5-39.4,20.3c-8.1-6.3,39.8-18.4,32.4-23.2c-7.4-4.8-33.5,22.5-38.7,17.3
		c-5.2-5.2,39.8-16.6,31.3-22.1c-8.5-5.5-32,22.8-34.3,19.9c-2.2-2.9,33.2-24.7,25.8-25.4c-7.4-0.7-21.7,28.4-28,22.5
		c-6.3-5.9,29.5-21.7,21-26.5c-8.5-4.8-21,25.8-27.3,20.6c-6.3-5.2,26.9-22.8,18.8-25.4c-8.1-2.6-19.5,24.7-25,20.3
		c-5.5-4.4,24.3-21.4,19.2-24.3c-5.2-2.9-21,26.9-24.7,21.7c-3.7-5.2,25-20.3,19.5-24.7c-5.5-4.4-19.9,25.8-25.4,19.5
		c-5.5-6.3,25.4-19.5,19.9-23.9c-5.5-4.4-20.6,25.4-25.4,21.4c-4.8-4.1,25.8-22.1,18.1-26.2c-7.7-4.1-18.1,29.5-22.8,22.1
		c-4.8-7.4,21-21,16.6-24.7c-4.4-3.7-18.4,24.3-22.1,19.5c-3.7-4.8,22.5-20.1,17.7-23.2c-4.8-3.1-17.7,20.6-21.4,18.4
		c-3.7-2.2,20.1-18.7,15.6-22.4c-4.5-3.7-17.4,24.3-21.5,18.4c-4.1-5.9,21-19.9,16.9-22.1c-4.1-2.2-13.6,21-21,16.2
		c-7.4-4.8,19.4-14.4,14.4-19.9c-5-5.5-16.9,23.2-21.7,15.1c-4.8-8.1,19.4-15.1,16.7-20.6c-2.7-5.5-16,17.7-21.5,12.5
		c-5.5-5.2,19.9-12.2,17.3-15.8c-2.6-3.7-19.2,15.1-22.8,10.7c-3.7-4.4,22.8-11,20.3-14.4c-2.6-3.3-21.6,14.7-23.9,9.9
		c-2.3-4.8,22.1-10.7,20.3-15.1c-1.8-4.4-21.4,13.6-24.3,7c-2.9-6.6,21.7-7.7,20.3-12.5c-1.5-4.8-19.5,10.7-23.2,5.9
		c-3.7-4.8,23.6-5.5,21.7-10.7c-1.8-5.2-22.8,10.7-24.7,4.1c-1.8-6.6,22.1-2.9,22.8-9.2c0.7-6.3-25.8,9.2-23.9,4.1
		c1.8-5.2,20.6-5.5,22.8-11.4c2.2-5.9-24.3,11.4-22.8,2.9c1.5-8.5,23.6-3.3,25-8.8c1.5-5.5-22.5,6.3-21.7-2.9
		c0.7-9.2,22.1,0,23.2-2.6c1.1-2.6-26.9,1.1-20.3-6.3c6.6-7.4,17.3,8.5,21.4,3.7c4-4.8-21.4-4.4-15.1-12.5
		c6.3-8.1,16.6,11.8,19.2,7.7c2.6-4.1-17.7-11.4-12.9-15.8c4.8-4.4,15.5,20.3,15.5,11.8c0-8.5-15.5-15.8-9.6-14.7
		c5.9,1.1,12.9,22.5,12.5,14c-0.4-8.5-15.8-19.9-8.1-16.9c7.7,2.9,9.2,21.4,9.6,15.1c0.4-6.3-12.2-19.5-6.6-18
		c5.5,1.5,7.7,21.7,9.2,16.2c1.5-5.5-9.2-22.1-3.7-19.2c5.5,2.9,5.9,24.7,7.4,16.2c1.5-8.5-4.8-25-0.4-18c4.4,7,0.7,26.5,4.4,17.3
		c3.7-9.2-3.1-24,1.8-19c4.9,5-1.4,22.8,3.4,17.5c4.8-5.3-2.8-22.3,0.4-18.5c3.3,3.8,1,19.6,5.8,16.7c4.8-2.9-7.4-20.5-1.5-17.2
		c5.9,3.2,1.9,14.7,6.3,14.3c4.4-0.4-7.4-20.3-1.1-16.6c6.3,3.7,6.3,20.6,8.1,16.2c1.8-4.4-5.6-21.2-0.2-16.7
		c5.4,4.5,0.2,17.8,3.9,16.3c3.7-1.5-3.3-19.2,1.1-16.9c4.4,2.2,0,22.1,3.7,17.3c3.7-4.8-1.1-19.9,3.7-17.5
		c4.8,2.4-4.1,18.2,0.4,18.2c4.4,0,1.1-21,6.6-18.8c5.5,2.2-6.6,20.3-2.2,18.8c4.4-1.5,3.3-21.9,8.5-19c5.2,2.8-9.6,22.4-3.3,20.5
		c6.3-1.8,3.3-22.9,9-20.5c5.7,2.4-9.9,20.2-2.8,22.2c7.1,2,3.8-27.5,9.3-21.6c5.5,5.9-9.6,23.2-2.2,23.6c7.4,0.4,1.8-26.7,7.2-23.7
		c5.3,3-8.3,27.3-3.1,27c5.2-0.4,4.4-31.3,9.6-26.9c5.2,4.4-8.1,30.9-3.3,29.5c4.8-1.5,4.8-31.5,10.3-28.4c5.5,3-13.3,30.7-6.6,30.3
		c6.6-0.4,11.4-36.5,15.1-29.1c3.7,7.4-15.5,35.7-9.6,32.8c5.9-2.9,11.1-36.1,16.6-31.7c5.5,4.4-20.3,36.5-12.9,33.9
		c7.4-2.6,14.4-37.9,19.9-33.5c5.5,4.4-24.7,39.8-16.6,37.6c8.1-2.2,19.8-39.2,26.5-34c6.7,5.2-31.3,39.1-22.1,37.3
		c9.2-1.8,28.7-41.3,31.3-34.3c2.6,7-32.8,38.3-27.6,38.3c5.2,0,34.6-40.9,36.5-33.5c1.8,7.4-40.9,39.4-32.4,37.9
		c8.5-1.5,36.1-39.8,38.3-33.5c2.2,6.3-42.4,36.8-34.6,38.7c7.7,1.8,35-40.2,40.9-35.7c5.9,4.4-43.8,39.4-35,40.5
		c8.8,1.1,39-42.7,43.1-36.1c4,6.6-42.4,38.1-38.3,40.8c4.1,2.7,37.3-38.8,42.4-34.1c5.1,4.6-42.5,36.4-37.9,39.4
		c4.6,3,41.2-41.2,43.1-34.8c1.9,6.4-46.8,35.7-38.5,37.8c8.3,2.1,37.8-39.9,40.4-31.4c2.6,8.5-43.8,37.9-35.7,35.4
		c8.1-2.6,37.2-30.6,37.9-24.7c0.7,5.9-42.7,29.5-34.3,26.5c8.5-2.9,31.7-25,32.4-18.8c0.7,6.3-35.4,22.5-26.9,19.9"/>
	<path opacity="0.3" fill="none" stroke="#FEBE14" stroke-miterlimit="10" d="M395.7,539.7l-13.7,26.7c0,0-1.8,5.6,2.6,4.7
		c4.4-0.9,8.2-30.2,12-29.5c3.8,0.7-15.2,29.7-10.4,32.2c4.8,2.5,7.8-28.1,12.9-26.9c5.1,1.2-13.9,28.8-11.3,29.8
		c2.6,1,13.1-25.9,14.7-22.7c1.6,3.2-17,26.1-12.8,26c4.3-0.1,10.6-25.1,16.2-19.2c5.5,5.9-16.7,18.3-15,21.1
		c1.7,2.8,17.5-19.6,18.1-15.1c0.6,4.6-18.2,14.9-16.4,17.9c1.8,3,16.5-17.6,18.1-14.5c1.6,3.2-17.8,15-16.3,17.5
		c1.5,2.5,16.1-17.4,17.9-14.3c1.8,3.1-17.8,14.5-15.3,18.6c2.5,4,14.4-19.3,17.1-15.5c2.8,3.8-17.2,15.4-14.7,19.5
		c2.5,4.1,14.5-19,17.5-15.7c3,3.3-16.8,16.8-15.9,18.3c0.9,1.5,15.8-17.8,18.8-15c3.1,2.8-18.7,15.3-16.6,18.7
		c2.1,3.4,17.1-14.9,19.3-14.7c2.2,0.2-18.9,15.3-16.7,18.8c2.2,3.6,16.1-20.5,18.9-18.6c2.8,1.9-18.9,19.1-15.8,23.6
		c3.1,4.5,13.8-24,18.6-21.7c4.8,2.3-19.3,22.5-15.6,26.2c3.8,3.7,15.2-25.6,19.4-24.2c4.2,1.4-19.5,25.3-15.7,27.9
		c3.8,2.7,16-27.2,19.9-26.6c3.9,0.6-21.3,27.9-13.1,30.7c8.2,2.8,13.3-30.1,17-30.1c3.6,0-15.7,31.9-8.8,33
		c6.9,1,8.5-32.8,10.4-32.9c2-0.1-8.3,33.9-3.6,33.9c4.7,0,3.4-33.3,7.2-34.2c3.8-0.9-8,34.5,2.5,33.6c10.5-0.9-4.6-31.8,1.3-34.5
		c5.9-2.7,0.8,35.9,8,31.4c7.2-4.5-7-31.4-4.5-32.7c2.5-1.3,7.5,32.2,11.7,28.3c4.2-3.9-13.8-28.8-9.2-29.6
		c4.6-0.8,11.6,29.2,15.7,23.2c4-6-15.9-22.5-12.8-25.1c3.1-2.6,14.2,24.8,16.9,19.1c2.7-5.7-16.2-19.2-13.8-21.8
		c2.4-2.6,15.6,19.5,17.3,13.8c1.6-5.6-18.1-12.4-15.6-15.6c2.5-3.2,15.9,15.8,17.2,9.9c1.4-5.9-17.2-9-14.7-13.1
		c2.5-4.1,15,12.8,16.1,7.2c1-5.6-16-6.5-14.1-10.2c1.8-3.7,14.5,9.2,15.2,4.6c0.7-4.6-14.9-5.3-13.3-8.3c1.5-3,13.5,7.7,14.1,3.7
		c0.6-4-12.8-4.5-12.6-6.6c0.3-2.1,12.5,7.1,13.1,2.6c0.6-4.6-13.4-2.4-12.3-6.4c1.1-4,12.7,3.4,12.9,1.8c0.2-1.6-12.5-3.3-11.9-5.8
		c0.6-2.5,10.9,4.7,11.9,1.7c0.9-3.1-11.9-1.5-11.3-4.2c0.7-2.7,12.5,2.9,12.4-0.4c-0.1-3.3-12.3-0.1-11.8-2.3
		c0.6-2.3,12.3,1.2,11.7-1c-0.6-2.2-11.9,1.5-11.1-1.3c0.7-2.8,13.2,1.3,9.6-2.3c-3.6-3.6-8.8-0.5-8.8-0.5"/>
</g>
</svg>
