<?xml version="1.0" encoding="utf-8"?>
<!-- Generator: Adobe Illustrator 22.0.1, SVG Export Plug-In . SVG Version: 6.00 Build 0)  -->
<svg version="1.1" id="Layer_1" xmlns="http://www.w3.org/2000/svg" xmlns:xlink="http://www.w3.org/1999/xlink" x="0px" y="0px"
	 viewBox="0 0 10.1 10.2" style="enable-background:new 0 0 10.1 10.2;" xml:space="preserve">
<style type="text/css">
	.st0{opacity:0.5;}
	.st1{fill:#333338;}
</style>
<g class="st0">
	<path class="st1" d="M5.3,4.9L0.5,0.1C0.4,0,0.2,0,0.1,0.1C0,0.2,0,0.4,0.1,0.5l4.6,4.6L0.1,9.7C0,9.9,0,10,0.1,10.1
		c0.1,0.1,0.1,0.1,0.2,0.1c0.1,0,0.1,0,0.2-0.1l4.8-4.8C5.4,5.2,5.4,5,5.3,4.9z"/>
</g>
<g class="st0">
	<path class="st1" d="M10.1,4.9L5.2,0.1C5.1,0,4.9,0,4.8,0.1c-0.1,0.1-0.1,0.3,0,0.4l4.6,4.6L4.8,9.7c-0.1,0.1-0.1,0.3,0,0.4
		c0.1,0.1,0.1,0.1,0.2,0.1c0.1,0,0.1,0,0.2-0.1l4.8-4.8C10.2,5.2,10.2,5,10.1,4.9z"/>
</g>
</svg>
