<?xml version="1.0" encoding="utf-8"?>
<!-- Generator: Adobe Illustrator 22.0.1, SVG Export Plug-In . SVG Version: 6.00 Build 0)  -->
<svg version="1.1" id="Layer_1" xmlns="http://www.w3.org/2000/svg" xmlns:xlink="http://www.w3.org/1999/xlink" x="0px" y="0px"
	 viewBox="0 0 34.2 42.5" style="enable-background:new 0 0 34.2 42.5;" xml:space="preserve">
<style type="text/css">
	.st0{fill:#FFFFFF;}
</style>
<g>
	<g>
		<path class="st0" d="M12.3,17.9c-0.7,0.4-1.5,0.7-2.1,1.1c-2.2,1.4-3.8,3.4-4.4,6.1c-0.8,3.3-0.8,6.5,0.2,9.8
			c0.5,1.6,1.4,2.9,2.7,4c2.8,2.5,7,2.1,9.4-0.9c1.4-1.8,2-3.8,2.3-6c0.3-3.1,0-6.1-1.6-8.8c-1-1.6-2.2-3-3.4-4.5
			c-1.8-2.2-4.1-3.9-6.4-5.6c-1.8-1.4-3.5-2.8-4.6-4.8c-1.1-2-1-3.9,0.4-5.6c0.7-0.8,1.5-1.4,2.6-1.8C9.1,0.1,11.1,0,13.1,0
			c2.4,0,4.8,0.3,6.9,1.4c0.9,0.5,1.7,1.1,2.4,1.8c0.6,0.5,0.8,1.3,0.8,2.1c0,1-0.4,1.7-1.3,2.2c-0.9,0.4-1.8,0.5-2.6-0.2
			c-0.7-0.6-1.4-1.3-2.1-2c-0.5-0.4-0.9-0.9-1.3-1.4c-1.5-1.7-3.5-2.2-5.6-2C9.1,1.9,7.9,2.2,6.9,3.1C5.4,4.3,5.2,5.7,6.3,7.2
			c1,1.5,2.5,2.5,3.9,3.4c2.5,1.6,5,3.1,7.5,4.8c2,1.3,3.8,2.9,5.3,4.8c4,5.3,3.2,13.3-1.5,18.1c-3.3,3.4-7.3,4.8-12,4
			c-4.7-0.8-8.6-4.9-9.3-9.7c-0.6-4.1,0.3-7.9,3.1-11.1c2-2.3,4.5-3.6,7.3-4.6c0.1,0,0.3,0,0.4,0C11.4,17.2,11.9,17.6,12.3,17.9z"/>
	</g>
	<g>
		<path class="st0" d="M25,32.1c0.4,0.8,1.4,2.8,1.7,3.5c0.2,0.4,0.5,0.7,0.8,1c2.1,2.1,4.3,0.7,5-1c0.3-0.7,0.4-1.4,0.6-2.2
			c0.9-0.2,1.2,0,1.1,0.9c-0.2,1.3-0.3,2.6-0.7,3.9c-0.7,2.2-2.8,3.3-4.8,2.8c-0.9-0.2-1.7-0.6-2.1-1.4c-0.7-1.1-2.3-3.6-2.9-4.8
			c-0.1-0.1,0.6-0.9,0.6-1C24.6,33.1,24.6,33,25,32.1z"/>
	</g>
</g>
</svg>
