<?xml version="1.0" encoding="utf-8"?>
<!-- Generator: Adobe Illustrator 22.0.1, SVG Export Plug-In . SVG Version: 6.00 Build 0)  -->
<svg version="1.1" id="Layer_1" xmlns="http://www.w3.org/2000/svg" xmlns:xlink="http://www.w3.org/1999/xlink" x="0px" y="0px"
	 viewBox="0 0 318 480" style="enable-background:new 0 0 318 480;" xml:space="preserve">
<style type="text/css">
	.st0{fill:url(#SVGID_1_);}
	.st1{opacity:0.7;}
	.st2{fill:none;stroke:#333338;stroke-width:0.75;stroke-miterlimit:10;}
</style>
<linearGradient id="SVGID_1_" gradientUnits="userSpaceOnUse" x1="158.9223" y1="480" x2="158.9223" y2="-2.424271e-05">
	<stop  offset="0" style="stop-color:#4E4D5C"/>
	<stop  offset="1" style="stop-color:#333338"/>
</linearGradient>
<rect x="-0.1" y="0" class="st0" width="318" height="480"/>
<g class="st1">
	<path class="st2" d="M145.1,235l9.1,7.6c0,0,7.1-0.1,0,2.8c-7.1,2.9-8.6-13.4-13.4-9.5c-4.8,4,9.2,6.8,7.1,9.8s-8.2-11.4-10-9.5
		s10.2,9.1,6.7,11.4c-3.5,2.3-7-11.4-8.6-9.5c-1.6,1.9,10.9,12.1,6.3,11.2c-4.7-0.9-10.7-16.7-9.3-10.9c1.4,5.8,12,15.1,6.9,11.8
		c-5.1-3.2-8.8-15.3-9-10c-0.2,5.3,10.7,11.2,6.7,12.1s-9.5-15.4-10-11.6s11.2,12.8,7.9,13.5c-3.3,0.7-8.6-14.2-10.2-11.4
		s11.6,12.8,8.1,12.6s-8.6-11.6-10.5-11.2c-1.9,0.5,10.7,11.9,7.9,12.8s-9.5-14.4-11.2-11.9c-1.6,2.6,12.6,15.1,8.8,14
		s-9.9-14.8-11.4-11.9c-1.6,2.9,12.4,12.4,9.4,13.6s-10.9-15.8-12.6-11.6s15.1,13,10.5,14.4c-4.7,1.4-12.3-16.3-13-12.8
		c-0.7,3.5,12.6,13.4,11,15.1c-1.7,1.7-12.1-15.8-13.3-13.4s16.5,14.7,10.9,16.7c-5.6,2.1-10.2-17.7-13.7-15.4
		c-3.5,2.3,13,16.5,11.6,18.1s-14.4-18.8-15.1-14.9c-0.7,4,15.4,14.9,13.6,17.7s-15-18.9-16.6-15.4c-1.6,3.5,20.5,17.4,14.9,19.5
		c-5.6,2.1-14.4-20.7-17-17.2s16.5,17.9,15.6,19.8s-17.4-20.5-19.5-16.1c-2.1,4.5,20.4,16.3,18.6,18.9c-1.9,2.6-20.7-20-21.6-16
		s23.7,18.1,20.7,19.1c-3,0.9-21.6-17.4-23-15.8c-1.4,1.6,24.9,16.3,21.9,17.9c-3,1.6-22-18.1-24-14.6c-2,3.5,25.4,14.9,23.1,17.2
		c-2.3,2.3-23.5-16-25.8-12.8c-2.3,3.3,27.4,13,25.8,15.8c-1.6,2.8-27.2-15.1-28.1-12.6s29.5,13,27.4,16c-2.1,3-27.9-17-29.5-12.3
		s30.5,10.9,29.1,15.4s-28.8-15.1-30.5-11.9c-1.6,3.3,32.6,12.6,30.2,15.1c-2.3,2.6-29.1-15.1-32.1-10.7c-3,4.4,32.3,11.4,31.4,13.3
		s-30.7-11.4-32.3-9.1c-1.6,2.3,33.3,9.8,32.3,12.1c-0.9,2.3-34-11.2-34.4-7.7s36.7,7.2,33.5,11.9s-35.4-12.6-34.7-6.5
		s35.1,7.2,34.4,10s-32.6-9.2-34.4-5.9S106,318.3,106,322c0,3.7-34.8-9.8-35.5-5.6c-0.8,4.2,34.8,5.8,35.5,9.3s-36.7-8.4-36.3-5.1
		s36.3,5.6,37,8.6c0.7,3-36.3-8.8-36.5-5.3c-0.2,3.5,36.7,4.4,37.2,8.4c0.5,4-37.4-9.1-37.4-4.9c0,4.2,37.7,6.5,37.9,8.8
		c0.2,2.3-37.7-8.8-37.9-4.7s37.2,4.2,38.1,7s-39.3-6.3-38.4-2.8s39.3,3,39.3,5.6s-40-5.8-38.4-2.1c1.6,3.7,38.4,1.9,38.4,4.7
		s-38.6-3.7-37.1,0s36.4,1.2,37.1,2.8s-36.7-2.8-35.6,0.9s36.3-0.9,36.3,0.7c0,1.6-36.1,1.4-35.6,4s36.1-3.3,36,0
		c-0.1,3.3-37.8-1.6-34.6,5.8c3.3,7.4,34-5.3,35.6-1.9c1.6,3.5-35.8,3.5-33.3,7s34.4-5.8,34.9-3.5c0.5,2.3-33.9,2.8-32.3,7
		s32.1-5.1,33.5-2.8c1.4,2.3-34.2,3.8-31.9,7s31.3-7,33.5-3.5c2.2,3.5-34.7,2.3-31.2,6.7c3.5,4.4,29.8-7.9,34.2-1.9
		c4.4,6-41.6-0.2-30.5,8.4c11.2,8.6,29.8-9.8,32.3-6c2.6,3.7-30.2,7.9-25.6,12.6c4.7,4.7,26.3-11.6,28.1-8.8
		c1.9,2.8-26.3,10.9-23.5,13.5c2.8,2.6,21.9-13.5,25.4-10.7c3.5,2.8-23.7,12.6-21.4,14.2c2.3,1.6,22.6-12.8,24.9-11.4
		c2.3,1.4-26.3,11.2-20,14.2c6.3,3,20.7-13.5,23.5-11.6c2.8,1.9-24.7,11.9-17.2,14.7s16.7-15.6,20-12.8c3.3,2.8-18.6,12.3-12.6,15.6
		c6,3.3,11.4-14.2,15.8-12.8c4.4,1.4-14.4,15.4-9.8,16c4.7,0.7,11.6-16,14.2-14.7c2.6,1.4-12.3,15.6-8.1,15.6
		c4.2,0,5.8-14.9,10.7-14.2s-12.3,13.7-5.1,15.7s5.1-16.1,8.6-14.3c3.5,1.9-6,14-1.9,14c4.2,0,3.5-14.7,6.5-14
		c3,0.7-6.3,14.4-2.3,14c4-0.5,1.6-13.5,5.3-13.3c3.7,0.2-6,14.4-1.4,12.8c4.7-1.6,1.9-12.6,5.1-12.6s-4.9,14.1,0,13.2
		s-1.2-13.7,2.8-14.1c4-0.5-4.2,14.2,2.1,13.3c6.3-0.9-1.2-12.1,1.7-12.8c2.9-0.7,1.3,12.6,4.5,11.9c3.3-0.7-3.7-12.3-1.4-13.5
		s3.3,13.7,4.7,12.8s-3.7-12.5,0-14.1c3.7-1.5-2.6,15.9,3,13.1c5.6-2.8-2.8-12.6,0.7-14.7s0.5,14.9,4.9,11.9c4.4-3-3.5-10.2-1.2-13
		s2.8,13.7,7.7,10.2s-6.3-11.4-3.7-14c2.6-2.6,4.9,15.1,8.4,12.1s-7.9-13-5.8-14.7c2.1-1.6,5.8,13.7,9.3,11.6
		c3.5-2.1-9.1-10-7.2-13.3s7.7,15.1,10.7,11.2c3-4-10.2-10.5-7.7-14c2.6-3.5,8.6,15.6,11.9,11.2s-11.9-11.2-9.3-14.7
		c2.6-3.5,9.5,14.4,12.3,12.1c2.8-2.3-11.6-11.6-9.8-15.6c1.9-4,8.6,17.4,12.6,13.3c4-4.2-12.8-12.8-11.2-16
		c1.6-3.3,11.6,16,16.3,11.4s-16-11.2-14.7-14.7c1.4-3.5,15.8,14,19.3,8.8c3.5-5.1-19.5-9.1-17.9-12.3c1.6-3.3,18.8,11.2,22.6,6
		c3.7-5.1-21.9-5.3-20.9-9.3s23.3,8.4,24,6.3c0.7-2.1-23.3-7.9-23-11.2c0.2-3.3,24,11.9,26.7,6c2.8-5.8-26.5-5.3-25.6-10
		s25.6,10.9,28.4,4.2c2.8-6.7-27.9-4.4-27.7-7.4c0.2-3,28.4,5.8,30.5,0.7c2.1-5.1-31.6-0.2-30.2-3.7c1.4-3.5,30.7,4.2,32.3-1.4
		c1.6-5.6-30.8,0.8-30.9-2.1c-0.2-2.9,30,1.6,32.6-5.8c2.6-7.4-32.7,5-32.7,2.9c-0.1-2,33-5,33.9-8.8s-34.7,7.9-34,5.8
		c0.7-2.1,34.2-7,35.1-11.9s-33.7,13-34.2,5.1c-0.5-7.9,35.1-4.4,35.1-10s-35.6,9.1-35.4,3.8c0.2-5.2,35.4-2.4,34.7-8.3
		c-0.7-5.8-35.4,9.5-35.4,4.2c0-5.3,35.1-3.5,35.1-8.4c0-4.9-34.7,8.6-35.1,3c-0.5-5.6,35.8-2.6,35.1-7.9
		c-0.7-5.3-33.7,6.7-35.6,2.3c-1.9-4.4,34.7-3,34.9-7.7c0.2-4.7-35.8,7.4-36.7,3.3c-0.9-4.2,36.5-2.6,35.6-8.8s-35.4,9.5-36.5,4.7
		c-1.2-4.9,37.7-4,35.6-9.8c-2.1-5.8-34.7,9.3-36.7,4.9c-2.1-4.4,38.1-5.3,36.1-10c-2.1-4.7-36.1,12.3-38.1,5.6
		c-2.1-6.7,40-1.9,34.9-12.8s-34.4,14.7-36.3,7.9c-1.9-6.7,36.3-10.2,33.7-14c-2.6-3.7-36.1,12.8-35.8,10c0.2-2.8,35-11.7,33-14.9
		c-2.1-3.2-31.2,15.9-35.9,8.9c-4.7-7,41.1-6.3,32.9-14.7s-31.4,16.7-36.5,9.8s35.1-12.1,30.7-15.8c-4.4-3.7-32.8,13.2-33.3,11.8
		c-0.4-1.4,33.5-13.4,30.7-15.5c-2.8-2.1-30.7,16.7-33,12.6c-2.3-4.2,32.8-13.3,29.3-16.5s-30.2,16-32.6,12.3
		c-2.3-3.7,33.3-12.3,29.1-15.6s-29.3,16.5-31.4,13s31.2-13.3,25.4-17.7c-5.8-4.4-24,17.9-27.4,14.2c-3.5-3.7,25.4-14.9,21.6-18.6
		s-23.7,18.8-25.8,16c-2.1-2.8,25.6-17,22.1-19.8c-3.5-2.8-22.1,19.5-24.9,16s24.7-16,21.4-18.8c-3.3-2.8-20.7,19.3-24.2,15.4
		c-3.5-4,25.6-16.7,20.9-18.1s-21.2,17.2-24.4,14.2c-3.3-3,23-12.8,19.8-15.6s-20.2,15.4-23,12.6s22.3-12.1,19.8-15.4
		c-2.6-3.3-19.5,14.2-22.6,12.6c-3-1.6,24-12.6,20-15.8s-19.8,16.7-24.9,12.8s25.1-11.6,20.5-14.7c-4.7-3-21.2,14.2-24.4,10.9
		c-3.3-3.3,25.1-10.5,19.8-14s-20.2,14.4-21.6,12.6s20.9-15.6,16.3-16c-4.7-0.5-13.7,17.9-17.7,14.2s18.6-13.7,13.3-16.7
		c-5.3-3-13.3,16.3-17.2,13c-4-3.3,17-14.4,11.9-16c-5.1-1.6-12.3,15.6-15.8,12.8c-3.5-2.8,15.4-13.5,12.1-15.4
		c-3.3-1.9-13.3,17-15.6,13.7s15.8-12.8,12.3-15.6c-3.5-2.8-12.6,16.3-16,12.3c-3.5-4,16-12.3,12.6-15.1c-3.5-2.8-13,16-16,13.5
		c-3-2.6,16.3-14,11.4-16.5c-4.9-2.6-11.4,18.6-14.4,14c-3-4.7,13.3-13.3,10.5-15.6c-2.8-2.3-11.6,15.4-14,12.3
		c-2.3-3,14.2-12.7,11.2-14.7c-3-2-11.2,13-13.5,11.6c-2.3-1.4,12.7-11.8,9.8-14.2s-11,15.3-13.6,11.6s13.3-12.6,10.7-14
		c-2.6-1.4-8.6,13.3-13.3,10.2c-4.7-3,12.3-9.1,9.1-12.6c-3.2-3.5-10.7,14.7-13.7,9.5c-3-5.1,12.2-9.5,10.5-13s-10.1,11.2-13.6,7.9
		s12.6-7.7,10.9-10s-12.1,9.5-14.4,6.7c-2.3-2.8,14.4-7,12.8-9.1c-1.6-2.1-13.7,9.3-15.1,6.3c-1.5-3,14-6.7,12.8-9.5
		c-1.2-2.8-13.5,8.6-15.4,4.4s13.7-4.9,12.8-7.9c-0.9-3-12.3,6.7-14.7,3.7s14.9-3.5,13.7-6.7s-14.4,6.7-15.6,2.6
		c-1.2-4.2,14-1.9,14.4-5.8s-16.3,5.8-15.1,2.6c1.2-3.3,13-3.5,14.4-7.2c1.4-3.7-15.4,7.2-14.4,1.9c0.9-5.3,14.9-2.1,15.8-5.6
		c0.9-3.5-14.2,4-13.7-1.9c0.5-5.8,14,0,14.7-1.6c0.7-1.6-17,0.7-12.8-4s10.9,5.3,13.5,2.3c2.6-3-13.5-2.8-9.5-7.9
		c4-5.1,10.5,7.4,12.1,4.9c1.6-2.6-11.2-7.2-8.1-10c3-2.8,9.8,12.8,9.8,7.4s-9.8-10-6-9.3c3.7,0.7,8.1,14.2,7.9,8.8
		s-10-12.6-5.1-10.7c4.9,1.9,5.8,13.5,6,9.5c0.2-4-7.7-12.3-4.2-11.4c3.5,0.9,4.9,13.7,5.8,10.2c0.9-3.5-5.8-14-2.3-12.1
		s3.7,15.6,4.7,10.2c0.9-5.3-3-15.8-0.2-11.4c2.8,4.4,0.5,16.7,2.8,10.9c2.3-5.8-2-15.1,1.1-12s-0.9,14.4,2.1,11.1
		c3-3.3-1.8-14.1,0.3-11.7c2.1,2.4,0.7,12.4,3.7,10.5c3-1.9-4.7-12.9-0.9-10.9c3.7,2,1.2,9.3,4,9c2.8-0.2-4.7-12.8-0.7-10.5
		c4,2.3,4,13,5.1,10.2c1.2-2.8-3.5-13.4-0.1-10.5c3.4,2.8,0.1,11.2,2.5,10.3s-2.1-12.1,0.7-10.7c2.8,1.4,0,14,2.3,10.9
		c2.3-3-0.7-12.6,2.3-11.1c3,1.5-2.6,11.5,0.2,11.5s0.7-13.3,4.2-11.9c3.5,1.4-4.2,12.8-1.4,11.9s2.1-13.8,5.3-12
		c3.3,1.8-6,14.1-2.1,13c4-1.2,2.1-14.4,5.7-12.9c3.6,1.5-6.3,12.8-1.8,14c4.5,1.2,2.4-17.4,5.9-13.6c3.5,3.7-6,14.7-1.4,14.9
		c4.7,0.2,1.2-16.8,4.5-14.9c3.4,1.9-5.2,17.3-2,17c3.3-0.2,2.8-19.8,6-17c3.3,2.8-5.1,19.5-2.1,18.6c3-0.9,3-19.9,6.5-18
		s-8.4,19.4-4.2,19.1c4.2-0.2,7.2-23,9.5-18.4c2.3,4.7-9.8,22.6-6,20.7c3.7-1.9,7-22.8,10.5-20c3.5,2.8-12.8,23-8.1,21.4
		c4.7-1.6,9.1-24,12.6-21.2c3.5,2.8-15.6,25.1-10.5,23.7c5.1-1.4,12.5-24.7,16.7-21.4s-19.8,24.7-13.9,23.5
		c5.8-1.2,18.1-26,19.8-21.6c1.6,4.4-20.7,24.2-17.4,24.2c3.3,0,21.9-25.8,23-21.2c1.2,4.7-25.8,24.9-20.5,24s22.8-25.1,24.2-21.2
		s-26.7,23.3-21.9,24.4c4.9,1.2,22.1-25.4,25.8-22.6s-27.7,24.9-22.1,25.6c5.6,0.7,24.7-27,27.2-22.8c2.6,4.2-26.8,24-24.2,25.7
		c2.6,1.7,23.5-24.5,26.8-21.6c3.2,2.9-26.8,23-24,24.9c2.9,1.9,26-26,27.2-22c1.2,4.1-29.6,22.5-24.3,23.9
		c5.3,1.3,23.9-25.2,25.5-19.8s-27.7,24-22.6,22.3c5.1-1.6,23.5-19.3,24-15.6c0.5,3.7-27,18.6-21.6,16.7c5.3-1.9,20-15.8,20.5-11.9
		c0.5,4-22.3,14.2-17,12.6"/>
	<path class="st2" d="M238.1,355.1l-8.6,16.9c0,0-1.1,3.5,1.6,3c2.8-0.5,5.1-19.1,7.5-18.6c2.4,0.5-9.6,18.8-6.6,20.4
		c3,1.6,4.9-17.7,8.2-17s-8.8,18.2-7.1,18.8c1.6,0.6,8.3-16.4,9.3-14.4c1,2-10.8,16.5-8.1,16.4c2.7,0,6.7-15.8,10.2-12.1
		s-10.6,11.5-9.5,13.3c1.1,1.8,11-12.4,11.4-9.5c0.4,2.9-11.5,9.4-10.3,11.3c1.1,1.9,10.4-11.1,11.4-9.1s-11.2,9.5-10.3,11
		s10.2-11,11.3-9c1.1,1.9-11.2,9.2-9.7,11.7c1.6,2.5,9.1-12.2,10.8-9.8c1.8,2.4-10.9,9.7-9.3,12.3c1.6,2.6,9.1-12,11-9.9
		c1.9,2.1-10.6,10.6-10,11.5c0.6,1,10-11.2,11.9-9.5c1.9,1.7-11.8,9.7-10.5,11.8c1.3,2.1,10.8-9.4,12.2-9.3
		c1.4,0.1-12,9.6-10.5,11.9s10.2-12.9,11.9-11.8c1.8,1.2-11.9,12.1-10,14.9c1.9,2.8,8.7-15.2,11.8-13.7c3,1.5-12.2,14.2-9.8,16.5
		c2.4,2.3,9.6-16.2,12.3-15.3c2.7,0.9-12.3,16-9.9,17.6c2.4,1.7,10.1-17.2,12.5-16.8c2.4,0.4-13.4,17.6-8.3,19.4
		c5.2,1.8,8.4-19,10.7-19c2.3,0-9.9,20.2-5.5,20.8s5.4-20.7,6.6-20.8c1.2,0-5.2,21.4-2.3,21.4c3,0,2.1-21,4.5-21.6
		c2.4-0.5-5.1,21.8,1.6,21.2c6.6-0.6-2.9-20.1,0.8-21.8c3.7-1.7,0.5,22.6,5,19.8c4.5-2.8-4.4-19.8-2.9-20.7
		c1.6-0.8,4.7,20.3,7.4,17.9c2.7-2.4-8.7-18.2-5.8-18.7s7.3,18.5,9.9,14.7s-10-14.2-8.1-15.9c1.9-1.7,9,15.7,10.7,12.1
		c1.7-3.6-10.2-12.1-8.7-13.7s9.9,12.3,10.9,8.7c1-3.6-11.4-7.8-9.8-9.8c1.6-2,10,10,10.9,6.3s-10.9-5.7-9.3-8.3
		c1.6-2.6,9.5,8.1,10.1,4.6c0.7-3.6-10.1-4.1-8.9-6.4c1.2-2.3,9.1,5.8,9.6,2.9c0.5-2.9-9.4-3.4-8.4-5.2c1-1.9,8.5,4.9,8.9,2.3
		c0.4-2.5-8.1-2.8-7.9-4.2c0.2-1.3,7.9,4.5,8.3,1.6s-8.5-1.5-7.8-4c0.7-2.5,8,2.2,8.2,1.1c0.1-1-7.9-2.1-7.5-3.7
		c0.4-1.6,6.9,3,7.5,1.1c0.6-1.9-7.5-0.9-7.1-2.7c0.4-1.7,7.9,1.8,7.9-0.3c-0.1-2.1-7.8,0-7.4-1.5c0.4-1.4,7.7,0.8,7.4-0.6
		c-0.4-1.4-7.5,1-7-0.8c0.5-1.8,8.3,0.8,6-1.5c-2.3-2.3-5.6-0.3-5.6-0.3"/>
</g>
</svg>
