<svg id="Layer_1" data-name="Layer 1" xmlns="http://www.w3.org/2000/svg" viewBox="0 0 137.88 16.64"><defs><style>.cls-1{fill:none;}.cls-2{fill:#333338;}</style></defs><title>arrows</title><polyline class="cls-1" points="0 2 132.64 2 132.64 16.64"/><path class="cls-2" d="M9.29,18.25l4.83-4.83a.3.3,0,0,0,0-.41L9.29,8.18a.29.29,0,0,0-.41.41l4.62,4.62L8.88,17.84" transform="translate(51.28 -6.01)"/><path class="cls-2" d="M14,18.25l4.83-4.83a.3.3,0,0,0,0-.41L14,8.18a.29.29,0,0,0-.41.41l4.63,4.62-4.63,4.63" transform="translate(51.28 -6.01)"/><polyline class="cls-1" points="69.28 0 137.88 0 137.88 14.64"/></svg>