<svg id="Layer_1" data-name="Layer 1" xmlns="http://www.w3.org/2000/svg" viewBox="0 0 268.94 346.42"><defs><style>.cls-1{fill:none;stroke:#f9fafa;stroke-miterlimit:10;}</style></defs><title>brush_logo</title><path class="cls-1" d="M91.34,137.15l10.93,9s8.43-.11,0,3.35-10.23-16.08-16-11.31,11,8.12,8.45,11.72-9.78-13.63-12-11.41S95,149.38,90.78,152.16s-8.34-13.62-10.28-11.4,13.06,14.46,7.5,13.35-12.79-20-11.12-13.07,14.35,18,8.29,14.15-10.51-18.32-10.79-11.92,12.79,13.34,8.06,14.45-11.4-18.35-12-13.9S83.83,159.11,79.94,160s-10.29-17-12.23-13.63,13.9,15.29,9.73,15S67.15,147.44,64.93,148s12.79,14.18,9.45,15.29S63,146.05,61,149.1s15,18.07,10.57,16.68-11.8-17.7-13.69-14.27,14.8,14.83,11.19,16.22-13.07-18.9-15-13.9S72.16,169.4,66.6,171.07,51.86,151.61,51,155.78s15.11,16,13.11,18-14.5-18.86-15.89-16.08,19.74,17.52,13.06,20-12.23-21.13-16.4-18.35,15.57,19.74,13.9,21.68-17.24-22.51-18.07-17.79S59.11,181.1,57,184.42s-18-22.53-19.89-18.36,24.46,20.85,17.79,23.36-17.24-24.75-20.3-20.58,19.74,21.41,18.63,23.63S32.5,167.91,30,173.24s24.41,19.51,22.19,22.57S27.4,171.9,26.28,176.63,54.64,198.31,51,199.42s-25.86-20.85-27.53-18.9S53.25,200,49.64,201.93s-26.26-21.66-28.7-17.51S51.3,202.2,48.52,205,20.44,185.8,17.66,189.69s32.81,15.57,30.86,18.91-32.52-18.07-33.64-15,35.31,15.56,32.81,19.18S14.33,192.47,12.38,198,48.8,211.1,47.13,216.38,12.66,198.31,10.71,202.2s38.93,15,36.15,18.07S12.1,202.2,8.49,207.49,47.13,221.11,46,223.33,9.32,209.71,7.38,212.49,47.13,224.17,46,227,5.43,213.6,4.88,217.77s43.92,8.62,40,14.18-42.26-15-41.42-7.78,42,8.62,41.14,12-38.95-11-41.16-7,41.16,7.57,41.16,12S3.09,229.45,2.17,234.45s41.63,7,42.46,11.12-43.92-10-43.37-6.11,43.37,6.67,44.21,10.28S2.1,239.18,1.82,243.35s43.92,5.28,44.48,10S1.54,242.52,1.54,247.52s45,7.78,45.32,10.56-45-10.56-45.32-5.56,44.48,5,45.59,8.34-47-7.5-45.87-3.33,47,3.61,47,6.67S.43,257.25,2.37,261.7s45.88,2.22,45.88,5.56-46.09-4.45-44.31,0,43.47,1.39,44.31,3.33-43.93-3.33-42.54,1.12,43.37-1.12,43.37.83S6,274.21,6.54,277.27s43.16-3.89,43,0-45.21-1.95-41.32,7,40.59-6.4,42.54-2.23S7.93,286.16,11,290.33s41.15-6.95,41.7-4.17-40.57,3.31-38.64,8.34,38.37-6.11,40-3.33-40.9,4.5-38.1,8.36,37.39-8.39,40.05-4.19-41.42,2.78-37.25,8.06,35.58-9.45,40.86-2.22-49.76-.28-36.41,10S58.81,299.51,61.87,304s-36.14,9.45-30.58,15,31.41-13.9,33.64-10.57-31.42,13.07-28.08,16.13S63,308.4,67.15,311.74s-28.36,15-25.58,17,27-15.29,29.75-13.62-31.41,13.34-23.91,17,24.75-16.13,28.08-13.9S46,332.31,54.92,335.65s20-18.63,23.91-15.29-22.24,14.73-15,18.63,13.63-17,18.91-15.29S65.48,342,71,342.88s13.9-19.18,17-17.52S73.27,344,78.27,344s7-17.79,12.79-17-14.73,16.33-6.12,18.73,6.12-19.28,10.29-17.06S88,345.38,93,345.38s4.17-17.51,7.78-16.68S93.28,345.94,98,345.38s1.95-16.12,6.39-15.85-7.22,17.24-1.66,15.29,2.22-15,6.11-15-5.84,16.84,0,15.79-1.39-16.34,3.34-16.9-5,17,2.5,15.85-1.39-14.46,2.09-15.29,1.53,15,5.42,14.17-4.45-14.73-1.67-16.12,3.89,16.4,5.56,15.29-4.45-15,0-16.8-3.06,19,3.61,15.69-3.33-15,.84-17.52.55,17.8,5.84,14.18-4.17-12.23-1.39-15.57,3.33,16.41,9.17,12.24-7.51-13.63-4.45-16.68,5.84,18.07,10,14.45-9.45-15.57-6.95-17.51,6.95,16.4,11.12,13.9-10.84-12-8.62-15.85,9.18,18.07,12.79,13.35-12.23-12.52-9.17-16.69,10.28,18.63,14.18,13.35-14.18-13.35-11.13-17.52,11.4,17.24,14.74,14.46-13.9-13.9-11.68-18.63,10.29,20.86,15,15.85-15.3-15.29-13.35-19.18,13.9,19.18,19.46,13.62S157,298.4,158.62,294.23s18.9,16.68,23.07,10.56-23.35-10.84-21.4-14.73,22.51,13.34,27,7.22-26.13-6.39-25-11.12,27.8,10,28.64,7.51-27.8-9.45-27.53-13.34,28.64,14.17,32,7.22-31.69-6.39-30.58-11.95,30.58,13.07,33.92,5-33.36-5.28-33.08-8.89,33.91,7,36.42.83-37.81-.28-36.14-4.45,36.69,5,38.64-1.67-36.78.93-37-2.5,35.87,1.95,38.93-6.95-39,5.94-39.12,3.53,39.39-6,40.51-10.48-41.43,9.45-40.59,7,40.86-8.34,42-14.18-40.32,15.57-40.87,6.12,42-5.28,42-11.95-42.54,10.85-42.26,4.59,42.26-2.93,41.42-9.88-42.25,11.4-42.25,5,42-4.17,42-10-41.43,10.29-42,3.61,42.81-3.05,42-9.45-40.32,8.06-42.54,2.78,41.42-3.61,41.7-9.17-42.81,8.89-43.92,3.89,43.64-3.06,42.53-10.57-42.26,11.4-43.65,5.56,45-4.72,42.54-11.67-41.42,11.12-43.93,5.84,45.6-6.4,43.1-12-43.1,14.74-45.6,6.67,47.82-2.22,41.7-15.29-41.14,17.52-43.37,9.46,43.37-12.24,40.31-16.69-43.09,15.3-42.81,12,41.89-14,39.43-17.84-37.27,19-42.94,10.62,49.1-7.52,39.37-17.52-37.53,20-43.64,11.67,42-14.45,36.69-18.9S145,175.41,144.42,173.8s40.05-16.08,36.72-18.58-36.7,20-39.48,15,39.2-15.84,35-19.74-36.14,19.19-38.92,14.74,39.75-14.74,34.75-18.63-35,19.74-37.53,15.57,37.25-15.85,30.3-21.13-28.64,21.41-32.81,17,30.31-17.79,25.86-22.24S130,158.28,127.48,154.94s30.58-20.29,26.41-23.63-26.41,23.35-29.75,19.18,29.47-19.18,25.58-22.52S125,151.05,120.81,146.32s30.58-20,25-21.68-25.3,20.57-29.19,17,27.52-15.29,23.63-18.63-24.19,18.35-27.52,15,26.68-14.45,23.63-18.35-23.36,17-27,15,28.63-15,23.91-18.91-23.63,20-29.75,15.29,30-13.9,24.47-17.51-25.3,17-29.2,13.06,30-12.51,23.64-16.68-24.19,17.24-25.86,15,25-18.63,19.46-19.19-16.4,21.41-21.13,17,22.24-16.4,15.85-20S95,122.14,90.23,118.24,110.52,101,104.4,99.06s-14.73,18.63-18.9,15.29S103.85,98.23,100,96s-15.85,20.3-18.63,16.41,18.9-15.29,14.73-18.63-15,19.46-19.18,14.73,19.18-14.73,15-18.07-15.56,19.19-19.18,16.13S92.17,89.89,86.33,86.83,72.71,109.07,69.1,103.51,84.94,87.66,81.61,84.88s-13.9,18.35-16.68,14.74,17-15.18,13.34-17.52S64.93,97.67,62.15,96,77.33,81.91,73.91,79.09,60.76,97.39,57.7,93s15.85-15,12.79-16.69S60.2,92.11,54.64,88.5s14.65-10.85,10.84-15S52.69,91,49.08,84.88s14.63-11.39,12.6-15.56-12,13.34-16.21,9.45,15-9.18,13.06-12S44.08,78.21,41.3,74.87,58.53,66.53,56.59,64,40.26,75.16,38.52,71.54s16.68-8.06,15.29-11.4S37.68,70.43,35.46,65.42,51.86,59.58,50.75,56,36,64,33.23,60.42,51,56.25,49.64,52.36,32.4,60.42,31,55.41s16.68-2.22,17.24-6.95-19.46,6.95-18.07,3.06,15.56-4.17,17.23-8.62-18.35,8.62-17.23,2.23S48,42.62,49.08,38.45s-17,4.73-16.4-2.22,16.68,0,17.51-1.95-20.29.84-15.29-4.72S48,36,51,32.34,34.9,29,39.63,22.89s12.51,8.89,14.45,5.83-13.34-8.61-9.73-11.95S56,32.06,56,25.67s-11.68-12-7.23-11.12,9.73,17,9.45,10.56-12-15-6.11-12.79,7,16.13,7.23,11.4S50.19,9,54.36,10.1s5.84,16.4,7,12.23-7-16.68-2.78-14.46S63,26.5,64.09,20.11,60.48,1.2,63.81,6.48s.56,20,3.34,13.07S64.82,1.44,68.49,5.21s-1,17.23,2.55,13.23-2.13-16.85.33-14,.79,14.81,4.4,12.59S70.17,1.6,74.64,4s1.41,11.06,4.74,10.78S73.82-.47,78.55,2.31s4.73,15.57,6.12,12.24-4.2-16-.16-12.58.16,13.41,2.94,12.3S84.94-.19,88.28,1.48s0,16.68,2.78,13.07-.83-15,2.78-13.21-3.06,13.76.28,13.76S95-.75,99.12.92s-5,15.29-1.67,14.18S100-1.41,103.85.73s-7.23,16.87-2.5,15.48S103.83-1,108.15.77,100.64,16,106,17.51s2.85-20.76,7-16.31S105.79,18.72,111.35,19s1.39-20.14,5.43-17.85-6.26,20.63-2.37,20.36,3.34-23.64,7.23-20.3-6.11,23.35-2.5,22.24S122.75-.31,126.92,2s-10,23.13-5,22.85,8.62-27.52,11.4-22-11.68,27-7.23,24.74S134.43.37,138.6,3.7s-15.29,27.53-9.73,25.58S139.71.65,143.88,4s-18.62,30-12.51,28.36,15-29.58,20-25.63-23.61,29.52-16.66,28.13S156.39,3.7,158.34,9,133.6,37.9,137.49,37.9,163.62,7,165,12.6s-30.86,29.75-24.46,28.63,27.24-30,28.91-25.29-32,27.8-26.13,29.19,26.41-30.31,30.86-27S141.1,47.91,147.77,48.74,177.24,16.49,180.3,21.5s-32,28.72-28.93,30.76S179.5,23,183.36,26.5,151.28,54,154.72,56.25,185.8,25.16,187.22,30s-35.33,27-29.05,28.54,28.53-30.09,30.47-23.7-33.08,28.64-27,26.69,28.07-23.08,28.63-18.63-32.25,22.24-25.85,20S188.36,44,188.92,48.74s-26.69,17-20.29,15" transform="translate(-0.74 -0.02)"/><path class="cls-1" d="M201.83,279.59l-10.31,20.17s-1.37,4.24,2,3.58,6.15-22.83,9-22.27S191,303.52,194.66,305.4s5.91-21.2,9.77-20.3-10.46,21.71-8.51,22.46S205.82,288,207,290.4s-12.85,19.68-9.65,19.63,8-18.92,12.19-14.49S197,309.33,198.21,311.45s13.21-14.81,13.63-11.37-13.73,11.22-12.36,13.48,12.44-13.28,13.67-10.9-13.43,11.31-12.3,13.17S213,302.71,214.39,305s-13.44,11-11.58,14,10.84-14.57,12.95-11.68-13,11.62-11.08,14.72,10.93-14.31,13.18-11.84-12.68,12.67-12,13.81,11.91-13.41,14.21-11.33-14.08,11.55-12.49,14.1,12.88-11.25,14.56-11.08-14.3,11.51-12.61,14.22,12.17-15.45,14.29-14.05-14.26,14.42-11.94,17.79,10.43-18.14,14.05-16.39-14.58,17-11.74,19.77,11.48-19.33,14.66-18.29-14.71,19.08-11.82,21.09,12.07-20.51,15-20.05S216,340.92,222.17,343,232.24,320.3,235,320.3s-11.82,24.09-6.63,24.87,6.4-24.77,7.89-24.82-6.28,25.58-2.71,25.59,2.57-25.14,5.44-25.79-6,26.05,1.87,25.35-3.48-24,1-26,.59,27.06,6,23.7-5.29-23.71-3.41-24.71,5.63,24.27,8.84,21.35-10.42-21.74-7-22.36,8.79,22.08,11.82,17.54-12-17-9.69-19,10.72,18.74,12.73,14.43S249,316,250.76,314.07s11.78,14.72,13,10.45-13.66-9.36-11.76-11.75,12,11.92,13,7.49-13-6.77-11.09-9.88,11.34,9.69,12.13,5.44-12.07-4.92-10.68-7.7,10.92,6.95,11.47,3.46-11.23-4-10.08-6.25,10.2,5.8,10.63,2.76-9.7-3.4-9.48-5,9.45,5.39,9.91,1.95-10.12-1.77-9.31-4.81,9.6,2.6,9.76,1.37-9.42-2.5-8.95-4.41,8.25,3.58,9,1.27-9-1.11-8.5-3.18,9.46,2.18,9.39-.32-9.31,0-8.89-1.76,9.26.93,8.83-.73-9,1.14-8.41-1,10,.95,7.23-1.75-6.68-.38-6.68-.38" transform="translate(-0.74 -0.02)"/></svg>