<svg id="Layer_1" data-name="Layer 1" xmlns="http://www.w3.org/2000/svg" viewBox="0 0 31.8 25.9"><defs><style>.cls-1{fill:#333338;}</style></defs><title>kabutes_black</title><path class="cls-1" d="M13.1,2a6.86,6.86,0,0,1,2,5.3,8.21,8.21,0,0,1-.5,2.8c-.3.8-.8,1.8-1.4,3L6.7,25.8H-.1L4.3,13.4A6.8,6.8,0,0,1,1.2,7.3,7.41,7.41,0,0,1,3.2,2a6.49,6.49,0,0,1,5-2A6.8,6.8,0,0,1,13.1,2ZM29.7,2a6.86,6.86,0,0,1,2,5.3,8.21,8.21,0,0,1-.5,2.8c-.3.8-.8,1.8-1.4,3L23.2,25.7H16.4l4.4-12.4a6.8,6.8,0,0,1-3.1-6.1,7.41,7.41,0,0,1,2-5.3,6.49,6.49,0,0,1,5-2A7.37,7.37,0,0,1,29.7,2Z" transform="translate(0.1 0.1)"/></svg>